<svg xmlns="http://www.w3.org/2000/svg" viewBox="0 0 400 400"><defs><style>.cls-1{isolation:isolate;}.cls-2{fill:#394760;}.cls-3{fill:#9dc8eb;}.cls-15,.cls-4{fill:#e6e6e5;}.cls-10,.cls-11,.cls-12,.cls-14,.cls-16,.cls-4{mix-blend-mode:multiply;}.cls-5{fill:#de444e;}.cls-6{fill:#5879bc;}.cls-7{fill:#a61d42;}.cls-8{fill:#9c1b3e;}.cls-10,.cls-11,.cls-12,.cls-16,.cls-9{fill:#fec241;}.cls-10{opacity:0.39;}.cls-11{opacity:0.67;}.cls-12,.cls-28,.cls-31{opacity:0.49;}.cls-13{fill:#fff;opacity:0.21;mix-blend-mode:overlay;}.cls-16{opacity:0.35;}.cls-17{fill:#f04e57;}.cls-18,.cls-19{fill:#dc3c44;}.cls-19{opacity:0.44;}.cls-20,.cls-29{fill:#b5d6f1;}.cls-21{fill:#84abda;}.cls-22{fill:#f37130;}.cls-23{fill:#e15425;}.cls-24{fill:#8d1737;}.cls-25{fill:#700d2b;}.cls-26{fill:#a7224a;}.cls-27{fill:#c8333c;}.cls-28{fill:#faa22d;}.cls-29{opacity:0.65;}.cls-30{fill:#ec5b64;opacity:0.41;}.cls-31{fill:#ffc856;}</style></defs><g class="cls-1"><g id="Layer_1" data-name="Layer 1"><circle class="cls-2" cx="196.23" cy="200" r="107.38"/><path class="cls-3" d="M122.39,136.3c-1.9-3.8,6.32-9.58,8.8-11,2.74-1.55,6.31-3.74,9.55-3,2.63.58,3.7,2.48,6.63,1.84,3.75-.81,7.37-3.66,10.88-5.17a33,33,0,0,1,10.92-2.44c7.26-.49,14,2,21,3.3,6.55,1.2,12.75,3.63,19.29,4.81s13.39,1.05,19.63,3.32c3.24,1.19,6.27,2.69,9.66,3.41s6.61,1.34,9.45,3.4c1.3.93,2.23,2.23,3.62,3.05,1.85,1.1,4.7.73,5.93,2.75.79,1.3.31,3.33,1,4.83,1.13,2.32,3.44,3.57,2,6.46s-5.63,5.21-7.91,7c-2.79,2.13-5.5,4.38-8.36,6.44-6.45,4.64-14,8.52-22.14,8s-16.84-3.26-25-4.86c-9.48-1.86-19.09-3.12-28.7-4.15-3.61-.39-7.32-.76-10.61-2.45-2.65-1.37-3.74-3.74-6-5.48-3.7-2.85-9.83-4.37-14.31-5.6-4.21-1.16-9-2.12-11.32-6A57.22,57.22,0,0,1,122.39,136.3Z"/><path class="cls-4" d="M257.79,140.56c-1.23-2-4.08-1.65-5.93-2.75-1.39-.82-2.32-2.12-3.62-3.05a19.51,19.51,0,0,0-7.6-3l-.66.12c1.08.94,6.91,2.27,5.54,4.76s-8.71.31-10.64-.06a7.24,7.24,0,0,0-2.41-.22c-1.69.22-3.38,2-5,2.1s-2.59-1.54-4-1.86c-1.1-.25-2.36.12-3.52-.16-2.72-.67-3-1.95-4.38-4-1.13-1.68-2.88-1.56-4.75-1.62,1.6,2.4,1.28,3.31-1.11,4.78-3.14,1.93-4.92,2.53-8.48,1.86-1.66-.31-3.38-.31-5.05-.66a29,29,0,0,0-4.16-1c-2.17-.14-4.54.8-6.75.85-1.74.05-3.46-.15-5.2-.16a50.29,50.29,0,0,0-10.39,1.26c-2.8.55-5.75,1.55-8.64,1.18-2.7-.35-5.37-1.62-7.92-2.44-2.37-.76-4.58-.12-6.64-1.64-2.35-1.73-3.47-3-6.46-3.76-3.84-.95-8.43-2.91-12.75-3-3,2.41-6.12,5.76-4.87,8.26a57.22,57.22,0,0,0,4.15,8.33c2.34,3.91,7.11,4.87,11.32,6,4.48,1.23,10.61,2.75,14.31,5.6,2.25,1.74,3.34,4.11,6,5.48,3.29,1.69,7,2.06,10.61,2.45,9.61,1,19.22,2.29,28.7,4.15,4.05.8,8.2,1.87,12.38,2.81l4.53-.52c9-1,18.08-1.69,27-3.21,1.1-.7,2.18-1.43,3.22-2.18,2.86-2.06,5.57-4.31,8.36-6.44,2.28-1.74,6.56-4.17,7.91-7s-.9-4.14-2-6.46C258.1,143.89,258.58,141.86,257.79,140.56Z"/><path class="cls-3" d="M256,156.61H169.45a7.93,7.93,0,0,0-.65,1.15c-1.73,3.68-2.19,10-3.58,14.07-2.16,6.39-4.82,15,0,20.92l15.35,33.67c5.23,11,25.34,7.25,34.81,6,9.94-1.27,20.35-4.92,25.32-14.18,3.71-6.92,3.88-15.76,6.18-23.27,2.44-8,4.92-15.93,7.48-23.85C255.81,166.68,257.31,161.07,256,156.61Z"/><path class="cls-5" d="M86.58,247.33c4.06.26,8.13.6,12.2,1.14,29.42,3.9,59-1.95,88.1-6.87,13.8-2.34,37.15-5.4,48.21-15.47,7.75-7.06-4-15.51-9.75-19.6-4.64-3.32-10.62-4.22-15.16-7.3-6.17-4.19-5.36-10.07-5.35-17,0-6.64.14-8.75-6.24-11.78-3.13-1.49-6.66-2.22-9-5-1.42-1.75-1.53-4.25-3-6a11.23,11.23,0,0,0-3.63-2.82H77.2S82.19,215.68,86.58,247.33Z"/><path class="cls-6" d="M220.45,206.5c-6.2,1.75-15,4.5-21.2,1.72-2-.9-2.77-2.41-4.14-3.57-4.59-3.87-10.33-5.85-15.16-9.52-4.41-3.36-8.53-7.27-13.25-9.64-8.86-4.47-20.56,2.27-29.36,3.35-4.88.6-9.11-1.57-13.72-1.09-3.78.39-5.57,3.19-8.89,4.7-6.71,3.05-17.57,3.12-24.91,2.86a32.41,32.41,0,0,1-9.28-2.18c3,31.38,7.45,71.86,10.17,73.62,3.32,2.17,90.1,3.52,135.11,2.27A87.66,87.66,0,0,0,245,240.82c6.14-14.65,4.69-29.14,0-44C236.7,196.92,228.51,204.23,220.45,206.5Z"/><path class="cls-5" d="M156.78,203.4c-2.66-1.58-10.13-.14-13.25-.24-8.91-.3-14.88-.51-23.67,2.06-29.65,8.66-38.18-.49-38.18-.49,1.37,13.5,2.91,27.57,4.4,38.89a89.57,89.57,0,0,0,12.47,2.93c14.15,2.34,25.7-2.34,37-9.8,7.87-5.2,18.62-6.86,25.63-12.79,6-5,3.72-7.39.47-12.49C160,208.93,159.42,205,156.78,203.4Z"/><path class="cls-3" d="M203.82,269.4l-9.88-26.65-1.65.33c-2.17-7.85.7-17.21-4.86-24.55-4.72-6.22-12.46-6.83-19.59-5.4-5.41,1.08-9.93,3.41-15.64,2.94-3.65-.29-5.88-2.6-8.84-3.33-9.38-2.31-11.94,13.6-21.46,14.21-8.31.54-16-10.15-23.89-4-2.89,2.26-3.51,6.34-7,8.33-2.15,1.25-4.16,1.31-6.34,1.41,2.17,18.32,4.38,33,6,34C93.55,268.6,157.25,269.86,203.82,269.4Z"/><path class="cls-7" d="M255.59,156.61c-3,3.83-5.38,7.4-6.71,9.25-8.78,12.07-16.62,24.08-21.62,38.15-1.8,5.07-3.57,10.14-8.51,12.71-8,4.14-19.12,5.94-27.68,8.63-6.24,2-21.52,2.05-25.33,7-3.37,4.39-1,12.52-4.29,17.16-2.19,3.11-4.17,3-7.92,4.15-6.48,2-29.71,5.14-30.94,13.17a3.8,3.8,0,0,0,.26,1.92c46.61,1.26,127.5,1.14,129.49-2,2.75-4.34,14.13-110.14,14.13-110.14Z"/><path class="cls-8" d="M255.59,156.61c-3,3.83-5.38,7.4-6.71,9.25-8.78,12.07-16.62,24.08-21.62,38.15-1.8,5.07-3.57,10.14-8.51,12.71-8,4.14-19.12,5.94-27.68,8.63-6.24,2-21.52,2.05-25.33,7-3.37,4.39-1,12.52-4.29,17.16-2.19,3.11-4.17,3-7.92,4.15-6.48,2-29.71,5.14-30.94,13.17a3.8,3.8,0,0,0,.26,1.92l6.91.17a4.82,4.82,0,0,1,1.24-1.37c1.54-1.24,3.38-1.58,5.21-2.21,2.53-.87,5.1-1.9,7.55-3,3.77-1.73,8.14-3.27,11.63-5.47,2.76-1.74,4.77-4.17,7.54-5.91a17.51,17.51,0,0,0,5.27-4.76c2.05-3.21-.4-9.18,3.15-11.66,2.53-1.76,7.69-1.16,10.61-1.84,6.72-1.56,13.39-3.58,20.19-4.78A43.34,43.34,0,0,0,218.27,222c2.78-1.76,7.95-4,9.6-7,1.16-2.1.69-5.58,1.27-7.92a59.3,59.3,0,0,1,4.23-11.49c3.44-7,8.73-13.89,14-19.64,3.52-3.81,7.65-7.14,11.42-10.7,1.85-1.75,4.48-5.06,7.35-6,.19-1.73.29-2.69.29-2.69Z"/><path class="cls-4" d="M81.68,193.55a28.1,28.1,0,0,0,16.86,4.38c10.24-.48,22.43-5.68,24.75-7.41s9.52,1.48,14.46,1.48,16.31-6.28,21-6.36,17,6.17,17,6.17-6.85-10-13-11.94-17.14,6.94-22.8,7.06-11.77-5.54-17.38-3-21.46,9.27-25.17,9.27S81.68,193.55,81.68,193.55Z"/><path class="cls-4" d="M196.45,169.57s6.64,3.21,6.77,7.17-2.11,11.39,0,15.68.92,8.58,7.29,10.23,12.25,3.07,12.25,3.07-14-7.32-14.31-10.39,1.47-11.33,1.15-14.47-4.44-9-5.43-11S196.45,169.57,196.45,169.57Z"/><path class="cls-4" d="M157.42,215.78s-5.22-.55-8.45-3.29-9.64-3.24-11.22-2.08-9,11.05-12,12-19.31-.9-19.31-.9,6.19,9.16,15,7.84,16.91-13.72,20.35-13.11c14.34,2.54,16.43-.65,16.43-.65Z"/><path class="cls-4" d="M152.46,202.65A45.36,45.36,0,0,0,136.77,200c-7.86.33-16,3.14-23.09,4.79s-19.29,3.62-23.4,3.54c11.73,6.52,23.77,1.57,28.4,0s15.36-5.13,19.07-5.16S152.46,202.65,152.46,202.65Z"/><path class="cls-4" d="M184.44,172.68s9.33,1.34,10.08,6.91-.77,11,2.29,15.74,9.84,8.71,9.84,8.71-14.38-1.06-16.27-8,1.13-12.54-.79-15.35S184.44,172.68,184.44,172.68Z"/><path class="cls-4" d="M176.28,218.82c-2.92-2.26-9.54-.75-12.58.4a23.84,23.84,0,0,0-9.56,6.92c-5.65,6.59-13.6,8.84-22.22,8.35-2.77-.15-5.29-.7-7.8.86-3.57,2.22-6.15,6.74-7.18,10.71s1.57,7.63,3.91,4.42c2.74-3.77,9.74-4.18,14-4.23,2,0,3.84.92,5.3-.75.59-.67,1.54-1.72,2-2.41.73-1,.61-4.71,2.14-4.28,3.33.93-2.07,7.88,3.56,9.07,2.07.44,6.12-.86,5.7-3.69-.24-1.59-2.35-2.47-2.76-4.11-.55-2.24.65-3.29,2.24-4.53,1.93-1.5,2.14-2.49,3.09-4.51,1.18-2.51,5.61-6.32,8.44-4.79,1.22.65,1.2,1.08,2.55.78,2.07-.47,2.74-2.22,3.87-3.6a10.71,10.71,0,0,1,6.59-3.15A2.66,2.66,0,0,0,176.28,218.82Z"/><path class="cls-4" d="M255,174.26c-6.3,6.7-11.82,14.16-15.35,22.74a69.48,69.48,0,0,0-4.87,19.84c-.17,2,.37,4.27.08,6.25-.36,2.47-3.52,3.67-5.63,4.34-7.53,2.42-14.88,5-22.6,6.82-6.71,1.56-13.39,2.72-20.13,4.05-4,.79-6.05,3.21-7.89,6.57s-4.24,5-7.29,7c-1.72,1.15-4.95,1.92-6,3.75a15.48,15.48,0,0,1,4,.14c4.43.57,8-.33,11.22-3.41,1.77-1.68,3.24-4.08,5.19-5.53,2.81-2.09,7.07-2.12,10.37-2.45A120.77,120.77,0,0,1,215,244c4.76.29,9.39.73,14.09-.41,2.51-.61,5.49-1.63,5.81-4.56.12-1.12-1.08-3.56.37-4.34.34-.18.61.17.93.11a13.51,13.51,0,0,0,3.46-.6c1.77-.77,2.76-1.28,2.88-3,.24-3.37-2.45-6.38-2-9.87.5-4.18,3.17-8.84,4.85-12.7a16.17,16.17,0,0,1,2.34-3.89c.22-.27.93-.53,1.06-.84.66-1.6-.69-3.72-1.1-5.26-1.2-4.56.31-7.9,1.78-12.12.9-2.6,2.74-4.87,3.92-7.39C254,177.67,254.55,175.45,255,174.26Z"/><path class="cls-4" d="M91.45,182a6.41,6.41,0,0,0,3.81-.9,107.16,107.16,0,0,1,11.31-4.33c3.68-1.22,7.32-2.56,11.07-3.57a12.58,12.58,0,0,1,4.25-.82c2.74.31,5.72,2.68,8.25,3.78s4.58,2,7.34,1.87c7.2-.42,12.61-6.27,19.75-6.77,3-.21,6.63,1.54,9.32,2.82,2.19,1,4.17,3.7,6.73,3.8-1.47-.58-3.28-4.12-4.28-5.33-1.4-1.68-3.47-4.53-5.36-5.72a9.47,9.47,0,0,0-4-.85,32.16,32.16,0,0,0-13.76,2.68c-1.82.75-4.59,3.23-6.7,2.7s-3.08-3.09-4.55-4.21c-1.87-1.43-5-.12-7.2.5a7.11,7.11,0,0,1-1.72.5c-1.16-.32-1.76-3-3.27-3.54-1.12-.41-2.29.21-3.41,0s-1.36-1-2.63-.34c-1.5.78-2.31,3.39-3.46,4.57a16.41,16.41,0,0,1-5.46,3.24,55.44,55.44,0,0,0-8,4.44C96.49,178.44,94.92,181.19,91.45,182Z"/><path class="cls-9" d="M77.2,156.61s9,107.25,13.51,110.14,158.88,4.35,161.63,0,14.13-110.14,14.13-110.14Zm149.29,6.74S238,162,239,163.35s1.32,17.16,0,18.48-11.55.66-12.54,0S225.5,164.34,226.49,163.35Zm-20.13,0s11.55-1.33,12.54,0,1.32,17.16,0,18.48-11.55.66-12.54,0S205.37,164.34,206.36,163.35ZM204,188.91s11.56-1.32,12.55,0,1.32,17.16,0,18.48-11.56.66-12.55,0S203,189.9,204,188.91Zm-17.74-25.56s11.55-1.33,12.54,0,1.32,17.16,0,18.48-11.55.66-12.54,0S185.23,164.34,186.22,163.35Zm-1.44,25.56s11.55-1.32,12.54,0,1.32,17.16,0,18.48-11.55.66-12.54,0S183.79,189.9,184.78,188.91Zm-18.69-25.56s11.55-1.33,12.54,0,1.32,17.16,0,18.48-11.55.66-12.54,0S165.1,164.34,166.09,163.35Zm-.5,25.56s11.55-1.32,12.54,0,1.32,17.16,0,18.48-11.55.66-12.54,0S164.6,189.9,165.59,188.91ZM146,163.35s11.55-1.33,12.54,0,1.32,17.16,0,18.48-11.55.66-12.54,0S145,164.34,146,163.35Zm13,44c-1.32,1.32-11.55.66-12.55,0s-1-17.49,0-18.48c0,0,11.56-1.32,12.55,0S160.27,206.07,159,207.39Zm-19.19,0c-1.32,1.32-11.55.66-12.54,0s-1-17.49,0-18.48c0,0,11.55-1.32,12.54,0S141.08,206.07,139.76,207.39Zm-13.94-44s11.55-1.33,12.54,0,1.32,17.16,0,18.48-11.55.66-12.54,0S124.83,164.34,125.82,163.35Zm-5.24,44c-1.32,1.32-11.56.66-12.55,0s-1-17.49,0-18.48c0,0,11.56-1.32,12.55,0S121.9,206.07,120.58,207.39Zm-14.9-44s11.55-1.33,12.54,0,1.32,17.16,0,18.48-11.55.66-12.54,0S104.69,164.34,105.68,163.35Zm-4.29,44c-1.32,1.32-11.55.66-12.54,0s-1-17.49,0-18.48c0,0,11.55-1.32,12.54,0S102.71,206.07,101.39,207.39Zm-15.84-44s11.55-1.33,12.54,0,1.32,17.16,0,18.48-11.55.66-12.54,0S84.56,164.34,85.55,163.35ZM88.85,233c-1-.66-1-17.5,0-18.49,0,0,11.55-1.32,12.54,0s1.32,17.17,0,18.49S89.84,233.62,88.85,233Zm19.31,25.56c-1.32,1.32-11.56.66-12.55,0s-1-17.5,0-18.49c0,0,11.56-1.32,12.55,0S109.48,257.2,108.16,258.52ZM107.68,233c-1-.66-1-17.5,0-18.49,0,0,11.56-1.32,12.55,0s1.32,17.17,0,18.49S108.67,233.62,107.68,233Zm20.61,25.56c-1.32,1.32-11.55.66-12.54,0s-1-17.5,0-18.49c0,0,11.55-1.32,12.54,0S129.61,257.2,128.29,258.52ZM126.52,233c-1-.66-1-17.5,0-18.49,0,0,11.55-1.32,12.55,0s1.32,17.17,0,18.49S127.51,233.62,126.52,233Zm21.91,25.56c-1.32,1.32-11.56.66-12.55,0s-1-17.5,0-18.49c0,0,11.56-1.32,12.55,0S149.75,257.2,148.43,258.52ZM145.36,233c-1-.66-1-17.5,0-18.49,0,0,11.55-1.32,12.54,0s1.32,17.17,0,18.49S146.35,233.62,145.36,233Zm23.2,25.56c-1.32,1.32-11.55.66-12.54,0S155,241,156,240c0,0,11.55-1.32,12.54,0S169.88,257.2,168.56,258.52ZM164.2,233c-1-.66-1-17.5,0-18.49,0,0,11.55-1.32,12.54,0s1.32,17.17,0,18.49S165.19,233.62,164.2,233Zm24.5,25.56c-1.32,1.32-11.56.66-12.55,0s-1-17.5,0-18.49c0,0,11.56-1.32,12.55,0S190,257.2,188.7,258.52ZM183,233c-1-.66-1-17.5,0-18.49,0,0,11.56-1.32,12.55,0s1.32,17.17,0,18.49S184,233.62,183,233Zm25.8,25.56c-1.32,1.32-11.55.66-12.54,0s-1-17.5,0-18.49c0,0,11.55-1.32,12.54,0S210.15,257.2,208.83,258.52ZM214.42,233c-1.33,1.32-11.56.66-12.55,0s-1-17.5,0-18.49c0,0,11.56-1.32,12.55,0S215.74,231.64,214.42,233ZM229,258.52c-1.32,1.32-11.56.66-12.55,0s-1-17.5,0-18.49c0,0,11.56-1.32,12.55,0S230.29,257.2,229,258.52ZM233.25,233c-1.32,1.32-11.55.66-12.54,0s-1-17.5,0-18.49c0,0,11.55-1.32,12.54,0S234.57,231.64,233.25,233Zm-10.1-25.57c-1-.66-1-17.49,0-18.48,0,0,11.55-1.32,12.54,0s1.32,17.16,0,18.48S224.14,208.05,223.15,207.39Zm25.95,51.13c-1.32,1.32-11.55.66-12.54,0s-1-17.5,0-18.49c0,0,11.55-1.32,12.54,0S250.42,257.2,249.1,258.52Zm3-25.56c-1.32,1.32-11.55.66-12.54,0s-1-17.5,0-18.49c0,0,11.55-1.32,12.54,0S253.41,231.64,252.09,233Zm2.79-25.57c-1.32,1.32-11.56.66-12.55,0s-1-17.49,0-18.48c0,0,11.56-1.32,12.55,0S256.2,206.07,254.88,207.39Zm-8.25-25.56c-1-.66-1-17.49,0-18.48,0,0,11.55-1.33,12.54,0s1.32,17.16,0,18.48S247.62,182.49,246.63,181.83Z"/><path class="cls-10" d="M149.65,156.61H77.2l0,.15v.3c0,.07,0,.15,0,.24l0,.53v.1c0,.1,0,.21,0,.33.06.68.14,1.57.23,2.65V161c0,.29,0,.58.08.89.12,1.35.25,2.87.4,4.58l0,.18c0,.4.07.8.11,1.21l0,.21c0,.41.07.83.11,1.27l0,.22c.21,2.38.45,5,.71,7.83l0,.29c0,.5.09,1,.14,1.53l0,.33c.21,2.23.43,4.58.66,7,0,.18,0,.37,0,.56l.15,1.56,0,.54.15,1.54c0,.24,0,.48.07.72q.25,2.73.54,5.55c0,.09,0,.17,0,.25,0,.53.11,1.07.16,1.6,0,.17,0,.34.05.51.45,4.59.93,9.29,1.43,14a18.73,18.73,0,0,0,6.15,1.29.87.87,0,0,1,.12-.2s4.39-.5,8-.58c3.11-.58,6.16-1.39,9.29-2.19a44.39,44.39,0,0,0,9.57-3.55c-3.29,0-7.08-.37-7.67-.76-1-.66-1-17.49,0-18.48,0,0,11.56-1.32,12.55,0,.75,1,1.12,10.51.67,15.52a25.62,25.62,0,0,0,4.23-4.62c.34-.47.66-1,1-1.45,0-4.45.24-9,.74-9.45,0,0,2.46-.28,5.21-.46,1-2,2.06-3.95,3-5.93-3.52.25-8.91-.22-9.61-.69-.27-.18-.46-1.52-.59-3.41,0-.65-.07-1.35-.1-2.1s0-1.51,0-2.3c0-.62,0-1.18,0-1.74a.76.76,0,0,0,0-.15v-.71c0-.27,0-.53,0-.79,0-.09,0-.17,0-.26s0-.25,0-.38v-.33c0-.12,0-.23,0-.35s0-.27,0-.41,0-.24,0-.35,0-.35,0-.52,0-.16,0-.23,0-.29,0-.43,0-.14,0-.22,0-.39,0-.57a.41.41,0,0,1,0-.11l0-.46s0-.11,0-.16l0-.4,0-.12c0-.16,0-.31,0-.46s0-.31.06-.41,0-.07,0-.11l.06-.29a2,2,0,0,1,.08-.33,1.22,1.22,0,0,1,.07-.21.48.48,0,0,1,.11-.17s11.55-1.33,12.54,0a.82.82,0,0,1,.1.19.42.42,0,0,0,0,.1l.06.2s0,.11,0,.16a1.69,1.69,0,0,1,.05.24,1.18,1.18,0,0,1,0,.2c0,.09,0,.18.05.29l0,.23a3.26,3.26,0,0,1,0,.33l0,.26c0,.13,0,.25.05.38s0,.18,0,.27,0,.29.05.44a2.45,2.45,0,0,0,0,.27c0,.16,0,.32,0,.49s0,.18,0,.27,0,.36,0,.54,0,.18,0,.26,0,.39,0,.59,0,.18,0,.26,0,.42,0,.63a1.93,1.93,0,0,1,0,.24c0,.23,0,.45,0,.67s0,.15,0,.22c0,.24,0,.47,0,.71,0,.07,0,.14,0,.21,0,.24,0,.48,0,.71v1.15c0,.26,0,.53,0,.78.08-.13.16-.27.23-.41q2.87-.73,5.76-1.37c0-4.46.24-9,.74-9.51,0,0,11.55-1.33,12.54,0,.41.54.71,3.57.82,7,2-.26,4.05-.47,6.07-.65.09-3.26.32-6,.71-6.38,0,0,11.55-1.33,12.54,0,.36.48.64,3,.78,5.93,2,.05,4.07.15,6.11.3.09-3.19.32-5.86.7-6.23,0,0,11.55-1.33,12.54,0,.46.6.77,4.26.85,8.17q3,.57,6,1.24c0-4.43.25-8.92.75-9.41,0,0,11.55-1.33,12.54,0,.65.86,1,8,.81,13.17q3.12,1,6.21,2c-.35-5.12-.16-14.49.57-15.22,0,0,11.55-1.33,12.54,0s1.32,17.16,0,18.48a5.27,5.27,0,0,1-2.71.68q6.62,2.72,13,5.85c2.63-.1,5.1,0,5.54.55a7.84,7.84,0,0,1,.54,2.6c2.27,1.27,4.5,2.66,6.7,4.11,2.44-21.26,4.35-39,4.35-39Zm-64.1,6.74s11.55-1.33,12.54,0,1.32,17.16,0,18.48-11.55.66-12.54,0S84.56,164.34,85.55,163.35Zm15.84,44c-1.32,1.32-11.55.66-12.54,0-.61-.41-.85-7-.7-12.18,0-.18,0-.35,0-.51s0-.11,0-.16,0-.32,0-.48a.66.66,0,0,0,0-.14c0-.31,0-.61,0-.9a.41.41,0,0,0,0-.11c0-.13,0-.25,0-.37s0-.16,0-.23,0-.22,0-.33,0-.18,0-.26,0-.19,0-.28,0-.32,0-.46,0-.13,0-.19l0-.29,0-.18a2.34,2.34,0,0,1,0-.26.78.78,0,0,1,0-.14c0-.11,0-.23.06-.33s0-.21.07-.28.06-.18.08-.22a.56.56,0,0,1,.11-.18l.12,0,.22,0,.21,0,.27,0,.28,0,.58,0,.36,0,.37,0,.18,0,.25,0,.19,0,.28,0h.17l.31,0h.11l1.3-.1.43,0h.13l.36,0h1.66l1.22,0h1.44l.25,0h.15l.22,0,.12,0,.51.08a1.49,1.49,0,0,1,.85.39C102.38,190.23,102.71,206.07,101.39,207.39Zm12.42-24.8h-.62c-.9,0-1.78,0-2.62-.07l-.63,0-1.23-.1-.52,0h-.11l-.38,0h-.12l-.36,0-.48-.08-.34-.07-.28-.07-.24-.07-.2-.09c-1-.66-1-17.49,0-18.48,0,0,11.55-1.33,12.54,0a.66.66,0,0,1,.09.15,2.2,2.2,0,0,1,.08.23l0,.11a1.21,1.21,0,0,1,0,.18l0,.14c0,.07,0,.14,0,.22l0,.16a2.51,2.51,0,0,0,0,.27.88.88,0,0,1,0,.17c0,.1,0,.21,0,.32s0,.11,0,.16l.06.52c0,.2,0,.39,0,.59a1.37,1.37,0,0,1,0,.19c0,.14,0,.28,0,.43s0,.16,0,.24l0,.41c0,.09,0,.18,0,.26s0,.28,0,.43,0,.18,0,.27,0,.3,0,.44,0,.18,0,.28,0,.31,0,.48,0,.17,0,.25,0,.42,0,.63V171c0,.25,0,.5,0,.75V172c0,.17,0,.34,0,.5v2.26c0,.11,0,.22,0,.33s0,.28,0,.42,0,.21,0,.31,0,.3,0,.44,0,.25,0,.37l0,.56c0,.09,0,.18,0,.27l0,.38a2.83,2.83,0,0,1,0,.29c0,.11,0,.22,0,.33a2.46,2.46,0,0,0,0,.28l0,.31,0,.26,0,.28,0,.24c0,.09,0,.18,0,.27l0,.21c0,.09,0,.18,0,.27l0,.15a2.3,2.3,0,0,1-.42,1.11C117.72,182.33,115.91,182.55,113.81,182.59Zm145.36-.76c-1.32,1.32-11.55.66-12.54,0s-1-17.49,0-18.48c0,0,11.55-1.33,12.54,0S260.49,180.51,259.17,181.83Z"/><path class="cls-9" d="M69.58,140.76c-3.49,1.6-2.64,16.34,0,17.33s198,2.2,200.24,0,2.53-16.84,0-17.33S73.88,138.78,69.58,140.76Z"/><path class="cls-11" d="M261.77,154.62c-5.69,2-182.45,1-187.4,0-2.77-.55-5.06-6.11-6.56-10.92-1.22,4.81-.25,13.63,1.77,14.39,2.63,1,198,2.2,200.24,0,1.59-1.59,2.2-9.69,1.46-14.23C268.77,148.71,265,153.49,261.77,154.62Z"/><path class="cls-12" d="M248.67,264.8c-4.4.54-31.21-4.47-76.74-4.22s-71.82,4.46-76.75,4.21c-2.45-.13-5-3.61-7-7.08.93,5.22,1.79,8.57,2.53,9,4.45,2.9,158.88,4.35,161.63,0,.37-.58.9-3,1.54-6.84C252.35,262.39,250.5,264.57,248.67,264.8Z"/><path class="cls-13" d="M153.5,143.7c0,2.26,73.31,2.21,73.76,0S153.5,141.45,153.5,143.7Z"/><path class="cls-13" d="M236.66,143.7c-.24,1.27,29.53,1.46,29.75,0S236.91,142.44,236.66,143.7Z"/><g class="cls-14"><path class="cls-15" d="M164.2,214.47c-1,1-1,17.83,0,18.49s11.22,1.32,12.54,0,1-17.17,0-18.49a1.46,1.46,0,0,0-.84-.38,1.11,1.11,0,0,1,.6.31c.95,1.26,1.26,16.34,0,17.6s-11,.63-11.94,0-.94-16.42,0-17.57Z"/><path class="cls-15" d="M156,240c-1,1-1,17.83,0,18.49s11.22,1.32,12.54,0c.45-.45.7-2.54.81-5.18a6.57,6.57,0,0,1-.65,3c-1.26,1.26-11,.63-11.94,0s-.92-12.37-.35-16.34Z"/><path class="cls-15" d="M146.4,207.39a4.49,4.49,0,0,0,1.42.36.85.85,0,0,1-.19-.09c-.94-.62-.94-16.65,0-17.59,0,0,9.58-1.1,11.62-.22a2.67,2.67,0,0,0-.3-.94c-1-1.32-12.55,0-12.55,0C145.41,189.9,145.41,206.73,146.4,207.39Z"/><path class="cls-15" d="M165.59,207.39a1,1,0,0,0,.18.09c-.82-1.88-.78-16.51.12-17.41,0,0,11-1.26,11.94,0s1.24,15.64.09,17.48a.89.89,0,0,0,.21-.16c1.32-1.32,1-17.16,0-18.48s-12.54,0-12.54,0C164.6,189.9,164.6,206.73,165.59,207.39Z"/><path class="cls-15" d="M145.36,233c1,.66,11.22,1.32,12.54,0a1.65,1.65,0,0,0,.33-.74c-2.12.95-10.71.37-11.6-.22s-.94-16.65,0-17.6c0,0,2.91-.33,5.86-.48-3.4.13-7.13.55-7.13.55C144.37,215.46,144.37,232.3,145.36,233Z"/><path class="cls-15" d="M128.29,258.52a3.7,3.7,0,0,0,.52-1.65c-3.15.47-9.61,0-10.36-.54s-.93-12.76-.32-16.53c-1.41.12-2.38.23-2.38.23-1,1-1,17.83,0,18.49S127,259.84,128.29,258.52Z"/><path class="cls-15" d="M178.63,163.35c-1-1.33-12.54,0-12.54,0-.94.93-1,16-.16,18.23-.48-4.32-.33-15.08.43-15.84,0,0,11-1.26,11.94,0,.78,1,1.13,11.37.53,15.74C179.91,178.8,179.56,164.59,178.63,163.35Z"/><path class="cls-15" d="M146,163.35c-1,1-1,17.82,0,18.48a3.17,3.17,0,0,0,.88.27c-.55-3.89-.43-15.56.37-16.36,0,0,10.23-1.17,11.8-.13a6.42,6.42,0,0,0-.51-2.26C157.5,162,146,163.35,146,163.35Z"/><path class="cls-15" d="M139.07,233a1.44,1.44,0,0,0,.24-.47c-3,.55-9.83,0-10.61-.49-.94-.63-.94-16.65,0-17.6,0,0,3.41-.39,6.6-.52-3.71,0-8.78.59-8.78.59-1,1-1,17.83,0,18.49S137.74,234.28,139.07,233Z"/><path class="cls-15" d="M89.7,165.74a86.58,86.58,0,0,1,8.84-.56,5.24,5.24,0,0,0-.45-1.83c-1-1.33-12.54,0-12.54,0-1,1-1,17.82,0,18.48a13.27,13.27,0,0,0,3.84.62C88.77,179,88.87,166.56,89.7,165.74Z"/><path class="cls-15" d="M222.84,189.85c3.26-.29,9.1-.68,9.78.22.94,1.26,1.26,16.34,0,17.59a2.61,2.61,0,0,1-1.28.49c2.07,0,3.85-.26,4.35-.76,1.32-1.32,1-17.16,0-18.48s-12.54,0-12.54,0A2.09,2.09,0,0,0,222.84,189.85Z"/><path class="cls-15" d="M184.44,190c1.73-.19,10.8-1.11,11.65,0s1.26,16.34,0,17.59a1.38,1.38,0,0,1-.57.31,3.56,3.56,0,0,0,1.8-.58c1.32-1.32,1-17.16,0-18.48s-12.54,0-12.54,0A2.64,2.64,0,0,0,184.44,190Z"/><path class="cls-15" d="M259.17,163.35c-1-1.33-12.54,0-12.54,0a4.92,4.92,0,0,0-.46,2.09c3.32-.28,8.19-.52,8.8.3.85,1.13,1.19,13.47.33,16.83,1.86-.06,3.41-.28,3.87-.74a2.09,2.09,0,0,0,.37-.92c.14-1.26.28-2.48.41-3.67C260.22,172.05,259.85,164.25,259.17,163.35Z"/><path class="cls-15" d="M226.49,163.35a5.42,5.42,0,0,0-.47,2.17c3.26-.29,9.11-.69,9.78.22.85,1.12,1.19,13.36.34,16.78a5.51,5.51,0,0,0,2.89-.69c1.32-1.32,1-17.16,0-18.48S226.49,163.35,226.49,163.35Z"/><path class="cls-15" d="M206.36,163.35a5.53,5.53,0,0,0-.48,2.26c2.86-.28,10-.88,10.76.13s1.17,13.13.36,16.68a3.75,3.75,0,0,0,1.9-.59c1.32-1.32,1-17.16,0-18.48S206.36,163.35,206.36,163.35Z"/><path class="cls-15" d="M186.22,163.35a5.94,5.94,0,0,0-.49,2.36c1.49-.16,10.87-1.13,11.74,0s1.17,12.73.4,16.5a1.94,1.94,0,0,0,.89-.41c1.32-1.32,1-17.16,0-18.48S186.22,163.35,186.22,163.35Z"/><path class="cls-15" d="M203.64,189.94c2.89-.28,10-.87,10.72.13.94,1.26,1.25,16.34,0,17.59a2.29,2.29,0,0,1-1.07.45,6.19,6.19,0,0,0,3.22-.72c1.32-1.32,1-17.16,0-18.48s-12.55,0-12.55,0A2.38,2.38,0,0,0,203.64,189.94Z"/><path class="cls-15" d="M120.23,233a1.05,1.05,0,0,0,.19-.34c-3.31.32-8.94-.15-9.65-.62-.94-.63-.94-16.65,0-17.6,0,0,3.29-.37,6.43-.51a90.49,90.49,0,0,0-9.52.58c-1,1-1,17.83,0,18.49S118.91,234.28,120.23,233Z"/><path class="cls-15" d="M229,258.52c1.32-1.32,1-17.17,0-18.49-.26-.34-1.22-.5-2.5-.56.74,3.33.88,15.73-.25,16.86-1,1-7.14.81-10.24.39a3.68,3.68,0,0,0,.44,1.8C217.41,259.18,227.65,259.84,229,258.52Z"/><path class="cls-15" d="M148.43,258.52a4,4,0,0,0,.54-1.88c-2.46.83-10.5.26-11.36-.31s-.92-12.57-.33-16.44l-1.4.14c-1,1-1,17.83,0,18.49S147.11,259.84,148.43,258.52Z"/><path class="cls-15" d="M249.1,258.52c1.32-1.32,1-17.17,0-18.49-.32-.42-1.71-.57-3.46-.58.73,3.29.88,15.74-.26,16.88-.88.89-6,.84-9.25.51.11.94.25,1.56.43,1.68C237.55,259.18,247.78,259.84,249.1,258.52Z"/><path class="cls-15" d="M214.42,214.47c-.36-.47-2-.6-4.09-.58,1,.06,1.82.22,2,.51.94,1.26,1.25,16.34,0,17.6-1,1-7.9.79-10.76.31a1.26,1.26,0,0,0,.26.65c1,.66,11.22,1.32,12.55,0S215.41,215.79,214.42,214.47Z"/><path class="cls-15" d="M101.39,233a1.27,1.27,0,0,0,.17-.27c-3.35.16-8.08-.26-8.72-.69-.94-.63-.94-16.65,0-17.6,0,0,3-.34,6-.49a83.16,83.16,0,0,0-10,.56c-.53.53-.78,5.62-.74,10.32.32,2.82.63,5.58,1,8.26C90.83,233.68,100.13,234.21,101.39,233Z"/><path class="cls-15" d="M252.09,214.47c-.43-.57-2.86-.65-5.47-.55a2.62,2.62,0,0,1,1.61.48c.94,1.26,1.26,16.34,0,17.6-.85.85-5.62.84-8.89.54.07.22.13.37.21.42,1,.66,11.22,1.32,12.54,0S253.08,215.79,252.09,214.47Z"/><path class="cls-15" d="M208.83,258.52c1.32-1.32,1-17.17,0-18.49a2.42,2.42,0,0,0-1.51-.48c.72,3.42.86,15.65-.27,16.78s-8.73.76-11.22.23a4,4,0,0,0,.46,2C197.28,259.18,207.51,259.84,208.83,258.52Z"/><path class="cls-15" d="M254.88,188.91c-1-1.32-12.55,0-12.55,0a2.07,2.07,0,0,0-.28.86c3.32-.27,8.22-.52,8.83.3,1,1.26,1.26,16.34,0,17.59a2.56,2.56,0,0,1-1.31.49c2.46,0,4.73-.18,5.31-.76C256.2,206.07,255.87,190.23,254.88,188.91Z"/><path class="cls-15" d="M233.25,214.47c-.39-.52-2.45-.63-4.79-.57a3,3,0,0,1,1.84.5c.94,1.26,1.26,16.34,0,17.6-.94.94-6.62.82-9.82.44a1,1,0,0,0,.23.52c1,.66,11.22,1.32,12.54,0S234.24,215.79,233.25,214.47Z"/><path class="cls-15" d="M108,188.91c-1,1-1,17.82,0,18.48a18.22,18.22,0,0,0,5,.7,6.1,6.1,0,0,1-2-.43c-.94-.62-.94-16.65,0-17.59a79.32,79.32,0,0,1,9.71-.53,2,2,0,0,0-.23-.63C119.59,187.59,108,188.91,108,188.91Z"/><path class="cls-15" d="M125.82,163.35c-1,1-1,17.82,0,18.48a6,6,0,0,0,1.87.42c-.58-3.71-.47-15.7.34-16.51,0,0,7.75-.89,10.79-.43a5.54,5.54,0,0,0-.46-2C137.37,162,125.82,163.35,125.82,163.35Z"/><path class="cls-15" d="M127.22,188.91c-1,1-1,17.82,0,18.48a11.09,11.09,0,0,0,3.24.58,3.39,3.39,0,0,1-1.09-.31c-1-.62-1-16.65,0-17.59,0,0,7.51-.86,10.65-.45a2.17,2.17,0,0,0-.26-.71C138.77,187.59,127.22,188.91,127.22,188.91Z"/><path class="cls-15" d="M105.68,163.35c-1,1-1,17.82,0,18.48a9.92,9.92,0,0,0,2.86.54c-.6-3.59-.5-15.81.32-16.63a77.66,77.66,0,0,1,9.82-.53,5.11,5.11,0,0,0-.46-1.86C117.23,162,105.68,163.35,105.68,163.35Z"/><path class="cls-15" d="M95.23,208.14a7.69,7.69,0,0,1-2.39-.48c-.94-.62-.94-16.65,0-17.59,0,0,5.22-.6,8.78-.56a1.91,1.91,0,0,0-.23-.6c-1-1.32-12.54,0-12.54,0-1,1-1,17.82,0,18.48C89.36,207.73,92.3,208.07,95.23,208.14Z"/><path class="cls-15" d="M188.7,258.52c1.32-1.32,1-17.17,0-18.49a1.15,1.15,0,0,0-.5-.29c.68,3.68.79,15.49-.31,16.59-1.26,1.26-11,.63-11.94,0-.16-.1-.29-.63-.39-1.44.12,2,.32,3.44.59,3.63C177.14,259.18,187.38,259.84,188.7,258.52Z"/><path class="cls-15" d="M195.58,233c1.32-1.32,1-17.17,0-18.49-.3-.39-1.54-.55-3.13-.58,1,.07,1.77.22,2,.51.94,1.26,1.25,16.34,0,17.6s-10,.69-11.71.1a1.74,1.74,0,0,0,.3.86C184,233.62,194.26,234.28,195.58,233Z"/><path class="cls-15" d="M95.61,240c-1,1-1,17.83,0,18.49s11.23,1.32,12.55,0a3.47,3.47,0,0,0,.49-1.54c-3.34.27-8.68-.19-9.37-.65s-.93-12.94-.3-16.62C97.06,239.87,95.61,240,95.61,240Z"/></g><path class="cls-16" d="M148,139.76s-4.6,2.48-4.85,5.62c-.7,8.73,2.56,10.24,2.56,10.24l-11.85-.34-1.24-13.62,5.31-1.9Z"/><path class="cls-17" d="M146.83,139.52c-5.07-9.56-34.94-3.45-43-8.2s-18.3-1.84-24.87-.75S68.74,135.91,67,140.72s2.66,48.55,5.19,52.07a50.46,50.46,0,0,0,12,10.77c3.67,2.24,31.24-3.65,34.1-10.77s2.75-16.55,10.31-21.64,11.57-8.64,12.39-13.5S139.5,141.81,146.83,139.52Z"/><path class="cls-18" d="M137.3,163.7a7,7,0,0,0-.53,1.12,13,13,0,0,0,4.17-7.17c.82-4.85-1.44-15.84,5.89-18.13a1.18,1.18,0,0,0-.11-.19c-2.43-.81-2.9-.31-4.92,1.66s-2.83,3.78-2.3,6.48c.43,2.23-.1,4.88.12,7.21a16.54,16.54,0,0,1-.16,4.1C139.12,160.76,138.23,162,137.3,163.7Z"/><path class="cls-19" d="M107,137.86a49.69,49.69,0,0,0-5.25-1.3,80.1,80.1,0,0,0-9-1.37c-2.92-.16-11.42-2.06-12.9,1.62-.52,1.29.44,3.05,1.41,3.9,1.9,1.64,5,1.47,7.31,1.63s5,.11,7.43.26c1.55.1,3.82.21,5,1.33.67.6.58,1.6,1.17,2.17,1,1,3.36.82,4.62.72a26.89,26.89,0,0,0,5.61-1.23,69.93,69.93,0,0,1,9.34-1.77c1-.16,14-1.94,13.5-3.9s-8.42-1-9.82-1c-3.89.08-7.95.43-11.91.22A29.41,29.41,0,0,1,107,137.86Z"/><path class="cls-19" d="M117.28,176.44c-1.69,2.32-2.62,5.05-3.94,7.58a19,19,0,0,1-4.93,5.95,26,26,0,0,1-17.08,5.46c-1.78-.05-4-.36-5.41-1.7s-1.23-3.39-1.83-5c-1.37-3.72-3.68-2.74-6.76-2.89-2.2-.12-2.24-2.63-3.27-4.29a5.22,5.22,0,0,0-2.62-2.48,5.9,5.9,0,0,1-2.21-1c1,7.51,2.08,13.48,3,14.69a50.46,50.46,0,0,0,12,10.77c3.67,2.24,31.24-3.65,34.1-10.77s2.75-16.55,10.31-21.64c.68-.45,1.32-.89,1.95-1.33C125.76,171.52,120.28,172.31,117.28,176.44Z"/><path class="cls-13" d="M103.8,131.32c-8.09-4.75-18.3-1.84-24.87-.75S68.74,135.91,67,140.72c-.43,1.19-.49,4.77-.29,9.54A20.53,20.53,0,0,0,68.47,145c1.4-10.42,7-8.69,11.36-11.41,6.94-4.38,13.8-3.37,20.14-1.34,2.28.73,4.25,2,6.46,2.92,2.78,1.12,5.85.79,8.8.79,3.52,0,7-.19,10.53-.54a66.37,66.37,0,0,1,10.92.06,44.65,44.65,0,0,1,6.46.78C133.45,131.52,110.7,135.38,103.8,131.32Z"/><path class="cls-13" d="M134,142.26a83.43,83.43,0,0,1-7.89,3.59,54.78,54.78,0,0,1-9,2.1c-.85.14-12.6,1.71-10.28,4.34.84,1,3.44.46,4.58,1.24a3.31,3.31,0,0,1,1.05,4,10.53,10.53,0,0,1-2.89,4.25c-.73.7-1.78,1.34-2.05,2.37,1.14,1,3.8.74,5.18.58a18.14,18.14,0,0,0,8.65-3.65c4.6-3.49,9.53-6.77,13.09-11.42,1.19-1.56,4-4.66,3.23-6.91C136.93,140.79,135.07,142,134,142.26Z"/><path class="cls-4" d="M143.11,125.41c3.08,2,7.94,1,11-.53,2.41-1.26,3.56-3.12,5.19-.22.84,1.48,2.33,5.66-.16,6.34-.66.19-2.1-.8-2.84-1-1.17-.28-2.38-.29-3.54-.64-.63-.19-1-.65-1.71-.68s-1.37.52-2.08.55c-1.3.06-1.66-.52-2.84-1.08s-3.31-1-3.15-2.9C143.45,125.1,143.51,125.34,143.11,125.41Z"/><path class="cls-4" d="M216.55,128.88c1.41,2.36,2.2,3.74,4.91,4.12,1.91.27,3.14,1.82,4.89,2.14s3-1.18,4.63-1.16,3.57,1.41,5,.66c-.21-2.29-4.69-2-6.29-2.16a30.23,30.23,0,0,1-7.53-1.88c-1.48-.58-4.29-2.44-5.79-2.36C216.26,128.56,216.5,128.51,216.55,128.88Z"/><path class="cls-20" d="M209.5,124.63c-6.54-1.18-12.74-3.61-19.29-4.81-7.07-1.31-13.78-3.79-21-3.3a33.08,33.08,0,0,0-10.75,2.38,21.41,21.41,0,0,1,5.35-.59,20.94,20.94,0,0,1,6.07.51c1.93.58,1.94.72,1.85,2.31-.19,3.72,2.21,1,4.38,1.5,1.22.29,2.16,1.69,3.35,2.2a35.93,35.93,0,0,1,4.19,1.91c5,2.83,1.86-1.75,4.85-2.62,2-.59,3.81,1,5.72,1.23,1.4.14,2.52-.38,3.88-.57,1.75-.25,2.36.57,3.86,1,1.31.35,1.88-.41,3.24-.33s2.62.76,4.18.64c1.83-.14,3.63-.48,5.45-.7C213,125.16,211.24,124.94,209.5,124.63Z"/><path class="cls-20" d="M166.23,192.59c-2.14.46-4.23,2.77-6.09,3.9-1.59,1-2.43,1.19-3.27,2.95s-1,6.31,1.63,6.62a53.7,53.7,0,0,1,7.73-10.83C167.25,194.1,168.76,190.62,166.23,192.59Z"/><path class="cls-3" d="M218.59,181.06C211,177.55,195.91,169,190,170.53s-7.61,11.53-13.75,15-24.88,10.08-23.92,15.72,8.91,31.2,8.91,31.2l31.36,8.32,26.78-9.28,11.54-14Z"/><path class="cls-21" d="M214.07,186.26c1.07-1.28,2.82-3.19,4.36-5.27-2.11-1-4.76-2.33-7.62-3.74-3.84,2.61-7.82,5.25-12.18,6.44-4.74,1.29-9.72,1.34-14.53,2.17-3.19.55-6.95,1.54-8.92,4.36-.63.9-.76,2.42-1.37,3.14-.74.88-2.47,1.35-3.44,2-4.44,2.79-3.56,8.57-6.54,12.82-2.16,3.07-5.16,5.58-7.27,8.66,1.56,5.3,3.15,10.51,4,13.37a27.44,27.44,0,0,0,7.6-5.6c4.18-4,8.9-7,13.54-10.36,4.89-3.58,9.34-7.78,14.07-11.58C202.19,197.48,208.78,192.61,214.07,186.26Z"/><path class="cls-22" d="M257.82,163.06c-7.84.85-30.43,2.11-46.86,14.49s-34.32,14.13-39.33,22.85-21.11,21.81-7.83,25.74,11.6.87,31.2-3,24.64-10.47,35.21-.88,23,20.06,23,20.06,14.08,13.13,23.5,6.35,19.46-20.91,8.55-36.53S273,161.4,257.82,163.06Z"/><path class="cls-23" d="M277.09,197.24a14.48,14.48,0,0,0,.82-1.42c-1.62-4.83-3.09-9.84-4.66-14.45-5.22,3.4-10.65,6.6-16.83,7.47.42-4,4.35-6.88,2.65-11.46-4.42,1.3-6.14,11.62-10.13,11.71-4.8.11-.81-10.11-4.18-12.58-5.79-4.24-1.58,7.86-2,9.42-.77,2.67-3.84,0-5.49-1.2-5.28-3.83-14-4.09-18.16,1.63-.89,1.22-2.93,7.88-5,7.51-2.42-.44-.89-6.64-4.74-6.21-.92,2.63,1,4.87.73,7.4-1.39-.05-2.66-.92-4.1-1a10.82,10.82,0,0,0,.13,2.72c-3.17-.37-5.35-4-8.9-3.25-2.53.57-3.53,3.22-5.28,4.89-2,1.95-4.67,3.07-6.71,5-1.86,1.74-2.23,3.05-5,3.13-6.56.21-10,2.24-14.65,6.91-2,2-4.27,3.57-6.33,5.44l-.21.19c-.88,3.1.13,5.65,4.84,7,13.28,3.93,11.6.87,31.2-3s24.64-10.47,35.21-.88l.84.77c13.21-4.77,27.14-9.44,38.26-17.85A33.31,33.31,0,0,0,277.09,197.24Z"/><path class="cls-24" d="M298.89,202c-4.3-5.78.26-25.36-11-23.42s-36.75,16.71-40.54,15.49-12.58-10.2-20.79-9.07-10.46,14.16-12.7,14.37-16.77-2.05-19-.08S177,216.2,177,216.2l72.14,7,59.46-12.34Z"/><path class="cls-25" d="M308.56,210.85,298.89,202c-2.19-2.94-2.08-9.44-2.93-14.87-6.17-1.46-12.64,2.35-18.8,4.92-4,1.68-8.23,2.64-12.3,4.28a73.22,73.22,0,0,0-7.62,3.55c-1.31.7-3.25,2.26-4.85,2.21s-2.38-2-3.92-2.24-2.17,1.07-3.56.88-3.49-2.63-4.68-3.38c-1.6-1-3.5-2.57-5.25-3.26-2.33-.91-2.09-.39-3.73,1-1,.86-.66,1.08-1.77,1.49s-3.14.16-4.23.26c-4.41.43-6,4.59-10.66,4.78-1,0-2.36-.47-3.33-.33-3,.41-4.21,3.84-7.45,4.47-5.37,1-11.63,1.88-17.34,1.37l-7.89,7.52.44.32c.95.62,1.92,1.18,2.9,1.71l67.18,6.51Z"/><path class="cls-3" d="M227.62,218.4c5.3-1,23-8.76,32.47-13.82S281.68,192,290,192.26s24-3.61,29.72,2.05,11.77,34.17,8.72,40.42-13.09,24.58-22.25,26.32-23.24,8.41-27.76,2.46-18.83-17.22-18.83-17.22Z"/><path class="cls-21" d="M319,220.29c-3.91-3.19-14.55.43-18.56,1.94-2.23.83-8,5.3-9.61,2.32-2.37-4.32,15.09-17.64,10.45-19.78-1.36-.63-6.82,4-7.94,4.76-3.87,2.75-7,6.55-11.23,8.8a21.6,21.6,0,0,1-19.37.61c-5.3-2.33-11.17-3.53-13.13-9.18-8.7,4-18.3,8-22,8.64l32,27.89s14.31,11.26,18.83,17.22c2.24,2.94,6.81,2.8,12,1.68a57.86,57.86,0,0,0,7.58-8.41,9.88,9.88,0,0,0,1.79-9.36c-.26-.88-1-1-1-2-.05-1.18,1.17-2.81,1.76-3.77,2.16-3.44,1.89-3.18-1.69-5.23-2.05-1.18-6.77-3.18-4.12-5.73,1.8-1.72,6.12-1.45,8.29-1.65a41.93,41.93,0,0,0,9.43-2.06C315.16,226.09,323.48,224,319,220.29Z"/><path class="cls-24" d="M280.08,240.43c9.71-2.74,28.32-.38,28.48,2.55s-2.15,8.27,0,8.59,6.89,3.39,9.38,4.47,21.2,6.56,13.71,11-60.29,1.16-60.29,1.16l-1-14.51Z"/><path class="cls-25" d="M331.65,267.08c3-1.78,1.81-3.73-.84-5.49a25,25,0,0,1-12.28,3.26c-3.3,0-6.93.31-10.18-.49-2.63-.65-3.16-1.81-4.62-4-1.78-2.72-6.84-4.41-7.46-7.4-.42-2,1.27-4.24,1.57-6.23a20.08,20.08,0,0,0,.14-5.31,15.38,15.38,0,0,0-.36-1.84c-5.83-.58-12.76-.47-17.54.88l-9.72,13.3,1,14.51S324.15,271.57,331.65,267.08Z"/><path class="cls-25" d="M317.94,256c-2.49-1.08-7.22-4.15-9.38-4.47s.17-5.66,0-8.59c0-.41-.41-.81-1.08-1.18.82,4.3-5.74,6.11-4.87,10.79.3,1.6,1.61,2,3.11,2.39,1.8.41,3.23.27,4.93,1.08a36.53,36.53,0,0,0,5.76,1.76,35.88,35.88,0,0,0,6.78,1.66,7.33,7.33,0,0,0,2.89-.35C322.58,257.62,319,256.47,317.94,256Z"/><path class="cls-26" d="M301.87,241.8a.61.61,0,0,0-.1-.51c-2.49-.2-3.47,10,.68,5,.74-.87,2.14-2.2,1.8-3.51S302.19,241.91,301.87,241.8Z"/><path class="cls-26" d="M313.71,259.36c-1.36-.49-4-2.09-5.4-1.26-2.09,1.27,1.81,3.13,2.77,3.43a24.47,24.47,0,0,0,7.86,1.19c1.62-.14,4.05-.69,5.15-2C323.38,258.44,317.72,259.36,313.71,259.36Z"/><path class="cls-18" d="M260.09,224c-15.54,1.68-6.83-28.36-33.14-21.81s-29.58,7.79-45.3,6.9-28.31,17.09-29.31,27.56.43,21.67,2.76,25.55c3.83,6.39,3.11,4.11,22.36,5.42s48.71-9.16,53.18-8.72,34.69,12,47.71,8.84S294,248.79,294,248.79,284.21,221.34,260.09,224Z"/><path class="cls-27" d="M290.84,242.25a21.22,21.22,0,0,1-.08,5c-.76,3.25-3.89,5.38-6.64,7-3.72,2.13-6.11,2.81-9.92,1.45s-8-3-12.13-3.51c-3.76-.49-8.71-.1-11.22-3.49,1.88-1.91,19.85-6,16.53-9.24-2.5-2.45-9.73,1.15-12.32,2-3.57,1.16-7.66,3.13-11.32,3.8-.29-2.13,2.48-9.5,0-10.73s-3.66,5.86-5.49,7c-4,2.51-2.8-2.17-5.49-3-2-.65-4.39,1-6.47.5-1.37-.34-3.16-1.56-4.59-2.1s-2.71-1.5-4.13-2.1c-2.17-.93-4.56-1.1-6.74-2a13.7,13.7,0,0,1-6.29-4.81,11.9,11.9,0,0,1-2.24-5.43c-.28-1.27-.39-4.23-1.91-4.68-2.88-.85-3.17,4.48-5.23,5.22-1.26.45-6.13-.4-7.63-.52a10.89,10.89,0,0,1-3.81-.89c-3-1.32-3.93-1.8-6.27,1a22.65,22.65,0,0,1-5.58,5.18c-3.31,2-7.88,2.89-10.88,5.26-1.69,1.33-4.93,7.94-6.88,3.44-.87-2-.18-4.29,0-6.5a23.86,23.86,0,0,0-1.76,6.59c-1,10.47.43,21.67,2.76,25.55,3.83,6.39,3.11,4.11,22.36,5.42s48.71-9.16,53.18-8.72,34.69,12,47.71,8.84S294,248.79,294,248.79A45.21,45.21,0,0,0,290.84,242.25Z"/><path class="cls-22" d="M147.73,255.76c5.66-1.22,19.79-22.4,29.23-25.28s20.36-.39,25.83,4.25,21.6,13.11,21.6,13.11,50.81,15.14,49,20.71-51.59,2.77-64.53,5-47.57-7.78-54.36-5S139.32,257.58,147.73,255.76Z"/><path class="cls-23" d="M273.4,268.55a1.34,1.34,0,0,0-.23-1.12c-2.13.14-4.07.4-5.33.5a48,48,0,0,1-9.88-.29c-2.84-.35-5.6-.59-8.44-.78-5.05-.35-9.7-2.94-14.23-5-3.49-1.55-7-3.23-10.34-5-2.45-1.3-3.63-3.49-6.39-1.45,1,3.74,5.54,6.88-.52,8.71-5.31,1.6-13.41-.33-18.25-2.58-2.07-1-7-5.53-8.51-1.72-1.32,3.26,4.33,6.31-1.54,7-4.72.56-7.85-2.68-12-3.72-4.34-1.08-6.68.32-10.15-3.56-2.32-2.6-4.37-9.42-8.32-9.4-.12,2.72,1.42,10.27-.3,12.37s-8,.61-10-.29a10.5,10.5,0,0,1-4.38-4.26c-2,4.34,4.47,12.79,9.92,10.56,6.79-2.77,41.42,7.25,54.36,5S271.61,274.12,273.4,268.55Z"/><path class="cls-28" d="M215.59,251.85c2.32-.65,2.68-1.26,5.25-.84a38.17,38.17,0,0,0,4.9.63,38.92,38.92,0,0,0,8.51-.73c-5.79-1.86-9.86-3.07-9.86-3.07s-8.56-4.5-15.33-8.74c-1.43,3.88-7.07,4.86-11.42,6.06-6.43,1.79-12.8-.28-19.19-1,.7,5.33,6.58,7.27,11.2,7.49,4.78.24,9.49-2.87,13.94-2.48a25,25,0,0,1-.22,3.68c2.66.4,4.23-1.89,6.7-2S212.94,252.59,215.59,251.85Z"/><path class="cls-27" d="M260.09,224c-7.85.85-9.51-6.4-12.63-12.93a5.26,5.26,0,0,1-.21.75c-1.23,3.22-4.95,5.93-7.86,7.47-4.51,2.4-9.06,2.09-13.62,3.53-.7,5.06,9.78,4.62,13.1,5.93,1.56.61,4.15,2.45,5.8,2.55s4.25-1.26,6.16-1.42c3.63-.3,7.19-2.23,11-3a35.39,35.39,0,0,1,6.94-.91c1.87,0,4,.36,6.07.43A26.94,26.94,0,0,0,260.09,224Z"/><path class="cls-29" d="M260.64,208.29c.65,3,8.16,6.1,10.8,6.93,4,1.26,7-.74,10.59-2.62A94.41,94.41,0,0,0,296.29,203c1.46-1.15,3.4-2.31,3.22-4.43-5-1.25-8.81,2-12.36,5.05-3.79,3.26-7.17,3.9-12.09,4.16C269.62,208,263.26,203,260.64,208.29Z"/><path class="cls-29" d="M316,198.57c-3-2.43-5.93-3.33-7.75.91-1.06,2.46-1.43,5.11-2.6,7.61-.66,1.41-3.38,5.73-2.26,7.32,2.26,3.2,8.05-6.57,10.36-7.11,4.27-1,3.75,3.86,6.24,5.69,2.69,2,5-.55,4.36-3.59-.35-1.75-1.92-3.31-3.15-4.45A27.65,27.65,0,0,1,316,198.57Z"/><path class="cls-29" d="M323.18,223.49c-.74,2.69-8,4.2-10.52,5-2.24.71-4.64,1.12-7,1.74-1.83.48-7.74.24-8.87,1.54-2.29,2.62,3.1,2.21,4.39,2.13,3.19-.18,6.64-1,9.8.1,2.31.83,4.18,3,6.93,2.43,3.17-.71,2.85-3.62,4.36-5.74s3.8-2.09,3.82-5.34C326.15,224.28,325.59,221,323.18,223.49Z"/><path class="cls-29" d="M202.85,176.4c-2.86-2.27-7.51-3.8-10.7-2.48-2,.82-9.71,7.65-4.75,8,2,.14,4.31-1.94,6.51-2.16,1.92-.19,4,.2,5.9-.16C202,179.18,203,178.26,202.85,176.4Z"/><path class="cls-30" d="M235.29,206c-6-.46-12.71,2.39-18.5,3.78A53.13,53.13,0,0,1,209.7,211c-1.26.13-4.09-.27-5.15.63-1.34,1.15-1.13,2.46.55,3.52,2.26,1.43,6.31-.47,8.52-1.31,2.42-.91,10.13-4.94,12.74-3.21,4.12,2.74-4.58,4.65-5.07,7.28.6.27,1.33.41,1,.8,2.59,1.9,7.82-.84,10.41-1.74s5.93-1.88,7-4.92C241,208.75,238.64,206.27,235.29,206Z"/><path class="cls-30" d="M279.08,250.64c4.27-.11,7.88-6.27,6.32-10.11-1.48-3.67-6.74-6.78-10.12-8.52-4.19-2.17-7.13-2-11.77-1.32-1.33.22-11.83,2.75-10.85,4.92.68,1.53,13.87-.16,15.68-.17,2.39,0,6-.09,7.51,2C278.37,240.89,274.48,248.67,279.08,250.64Z"/><path class="cls-30" d="M182.92,213.27h-6.73c-5-.67-16.39,7.18-15.69,13,4.44-.79,8.42-6.27,12.5-8.26,3.55-1.73,8.27-2,11.45-4.21A2.66,2.66,0,0,0,182.92,213.27Z"/><path class="cls-31" d="M269.11,180.14c.45-4.34-2.74-10.74-6.68-13-3.35-1.88-7.49-.63-11-.24-5.4.6-10.47,1.49-15.45,3.75-1.58.71-8.78,3.72-5.37,5.76,2.22,1.33,7-1.49,9.16-2.12,3.43-1,7.07-1.47,10.57-2.18,3.7-.74,6.59-1.54,9.53,1a34.81,34.81,0,0,1,5.44,6.62C266,180.74,267.39,183.71,269.11,180.14Z"/><path class="cls-31" d="M217,176.36a52.81,52.81,0,0,1-16.87,10.08c-1.56.52-5.1.29-6.16,1.74-1.39,1.91.7,1.81,2.49,1.52A48.85,48.85,0,0,0,213,183.49c1.72-1.06,4.47-2.69,5-4.85C218.42,176.9,217.81,175.18,217,176.36Z"/><path class="cls-23" d="M182.92,242.17a23.81,23.81,0,0,0,11.86-.39c1.22-.4,5.77-1.81,6.12-3.63.85-4.5-10.87-4.79-13.27-5.16-5.93-.91-11.83,1.94-16.07,6.06-.91.88-3.66,3.3-2.83,4.89,1.38,2.65,5.8-1.53,6.82-2.47,3.2-2.95,7-5.45,11.55-5.79,1.32-.1,5.66.6,4,2.95S181.23,237,182.92,242.17Z"/><path class="cls-23" d="M252.92,260.85l-7.72-3.48c-1.87-.43-8.18-2-9.78-1-2.88,1.8,1.54,2.27,2.93,2.5,4.17.72,8,2.27,12.14,3.2,1.64.38,2.63,2.6,4.67,1.28S253.63,261.71,252.92,260.85Z"/><path class="cls-26" d="M287.55,181.13c-6,2-12.49,4-18,7-3.92,2.18-9.44,4-12.43,7.17,1.63,1.76,7.05-1.16,9.15-1.84,5-1.61,9.62-4.31,14.56-6.12,2.67-1,7.79-1.71,9.7-4.13C291.52,182,291.8,179.88,287.55,181.13Z"/></g></g></svg>