<svg xmlns="http://www.w3.org/2000/svg" viewBox="0 0 400 400"><defs><style>.cls-1{isolation:isolate;}.cls-2{fill:#394760;}.cls-11,.cls-3,.cls-4,.cls-8{fill:#fec241;}.cls-4{opacity:0.39;}.cls-10,.cls-11,.cls-19,.cls-25,.cls-4,.cls-8{mix-blend-mode:multiply;}.cls-5{fill:#a61d42;}.cls-6{fill:#ffd780;}.cls-7{fill:#901a1c;}.cls-12,.cls-7{opacity:0.56;}.cls-8{opacity:0.17;}.cls-9{fill:#fde599;}.cls-10,.cls-11{opacity:0.22;}.cls-12{fill:#5d0b0c;}.cls-13{fill:#394762;}.cls-14{fill:#455576;}.cls-15{fill:#b51e47;}.cls-16{fill:#333;}.cls-17{fill:#fdb92a;}.cls-18,.cls-19{fill:#dc3c44;}.cls-19{opacity:0.2;}.cls-20{fill:#f04e57;}.cls-21{fill:#b9e3ea;}.cls-22{fill:#fbad44;}.cls-23,.cls-25{fill:#d02a54;}.cls-24{fill:#8d1737;}.cls-25{opacity:0.31;}.cls-26{fill:#ec4972;opacity:0.29;}.cls-27{fill:#fff;}</style></defs><g class="cls-1"><g id="Layer_1" data-name="Layer 1"><circle class="cls-2" cx="194.59" cy="200" r="107.38"/><path class="cls-3" d="M269.64,153.68c.3,1.68-2.56,20.46-1.12,29.86s0,28.42-.47,34-3,16.06-1.87,17.62,20.64,7.13,26.7,7,19-3.7,19.36-4.93,1.66-8.17,1.54-9.36-3.89-32.15-2.8-33.45,4.73,8.42,6.59,11.58,2.82,26.48,3.48,27.38,7.12-.17,13.72.33,25-7.45,25.31-9.16-2-7.69-3-10.22-9-36.13-9.71-38.46-5.77-7.22-4.7-8.34-5.61-21.7-5.61-21.7Z"/><path class="cls-4" d="M336.86,148.67a4.62,4.62,0,0,1,1.18.13l-1-3-67.45,7.87a13.28,13.28,0,0,1-.07,2c3,1.3,6.63,1.63,9.7,1.94a80.79,80.79,0,0,0,8.09.28,41.79,41.79,0,0,0,12.93-2.33c.24,1.57.09,3.14.25,4.72.21,2,.8,3.88,1.08,5.87.34,2.42.62,4.8,1.15,7.08-.7,1.29-1.15,2.62,0,3.81.17.18.49.14.64.32s.19.57.3.69a1.78,1.78,0,0,0,1.77.76c-.08-1.69-.92-2.81-.93-4.55a13.27,13.27,0,0,0-.35-3.37c-.42-1.63-.73-3.4-1-5.07s.16-3.5-.18-5.14c-.2-1-.8-1.74-1-2.72a17.86,17.86,0,0,1-.23-2.41,14.93,14.93,0,0,1,1.77-.17c.76,1.17.72,3,.93,4.31.27,1.69,1.16,3.32,1.36,5,.09.82-.39,1.56-.24,2.42.19,1.07,1.28,1.16,1.23,2.38a3.25,3.25,0,0,0,1.42,0,38.3,38.3,0,0,0-.82-4.57c-.28-1.42-.19-2.92-.42-4.35-.21-1.24-.81-2.41-1-3.64s-.42-2.28.85-2.59c.95-.23,1.88.08,2.83-.16a7.8,7.8,0,0,1,2.91-.4,14.64,14.64,0,0,0,5-.69c2.19-.54,4.33-.82,6.5-1.53a55.77,55.77,0,0,1,9.73-2.14C334.92,149.26,335.84,148.87,336.86,148.67Z"/><path class="cls-4" d="M311,225.25c-.18,1,0,.93-.9,1.14-1.63.39-3.19,1.33-5,1.58-2.54.33-5.11.37-7.65.73s-5.66,1.79-8.34,1.45a17.36,17.36,0,0,1-2.67-1.08c-2-.63-4-1.23-6-1.75-2.54-.64-5.14-1-7.65-1.78s-4.08-1.66-5.21-3.53c-.85,5.45-2.16,11.92-1.3,13.11,1.13,1.57,20.64,7.13,26.7,7,3.68-.07,9.89-1.42,14.28-2.74,1.38-.68,2.68-1.5,4.08-2.26l1.16-.59a60.79,60.79,0,0,0,1.38-8.7c0-.38-.39-3.4-.82-7.37-.37.9-.81,1.77-1.23,2.66A8.11,8.11,0,0,0,311,225.25Z"/><path class="cls-4" d="M356.88,213.61a11.11,11.11,0,0,1-.55,2.09,7.15,7.15,0,0,1-1.37,2.08c-1.24,1.25-3.27,1.45-4.82,2.18a5.5,5.5,0,0,0-1.74,1.32,4.26,4.26,0,0,1-1.73,1.09c-1.41.61-2.76,1.43-4.21,1.93a27,27,0,0,1-3.93,1.16c-1.34.23-2.69.24-4,.37a4.09,4.09,0,0,1-2.24-.38,6.72,6.72,0,0,0-2.68-.26,11.42,11.42,0,0,1-2.92-.11,11.63,11.63,0,0,0-1.66-.23c-1.18-.07-2.36.27-3.53.21a3.7,3.7,0,0,1-1.35-.44c.28,3.44.52,6.39.73,7.82a3.57,3.57,0,0,0,.46.4,9.22,9.22,0,0,0,1.53.88c2.49.06,7.17-.39,11.94,0,6.61.5,25-7.45,25.31-9.16s-2-7.69-3-10.22C357.05,214.17,357,213.93,356.88,213.61Z"/><path class="cls-5" d="M270.12,145.25c-.58.1-2.13,9.53-.72,9.76a152.77,152.77,0,0,0,31.22-.56c16.12-1.91,36.08-6.88,36.7-7.91s-1.27-7.73-2.23-7.63-18.69,5.32-34.65,6.53C284.17,146.67,271.43,145,270.12,145.25Z"/><path class="cls-6" d="M322.76,226c-2.57-.47-3.15-.65-3.78.37s2,11,3.08,11.65,9.18,2.41,21.11.29,21.85-10.46,22-11.66-4-12.17-6.95-10.5-13.26,9.84-18.05,10.55S322.76,226,322.76,226Z"/><path class="cls-7" d="M336.4,141.91c-.27,1.32-.3.7-.82,1.45s-.59,1.53-1.08,2.07c-.28.31-.85.43-1.15.94-.69-.13-1.85-.17-2.09.6-.58-.51-.88-.23-1.32-.39a3.79,3.79,0,0,1-1.36-.8c-.69.42-.6,1.33-1.21,1.84s-1.3.32-1.9.47-.28-.06-.85.21c-.3.15-.45.55-.81.68-.56.21-.93-.42-1.44.15-.57-.4-.68.22-1.08.21s-.87-.33-1.23-.35-.24-.16-.74,0-.33.79-.87.78c-.76,0-.63-1-1.19-1.33-.73.49-.38,1.62-1,2.13a4.05,4.05,0,0,1-.67-1c-.32.41-.4,1-.69,1.42-.68-1-1.16.7-2.07-.54-.47,1-.57,2-1.71,1.26s-1-2.7-1.74-3.78c-.9,1-.24,4.36-1.57,4.82-.27.09-.7-.4-1.13-.32s-.75.58-1.3.64c-.4,0-.95-.32-1.34-.31s-.84.31-1.3.36c-1.4.13-1.88-.17-3.09.79-.89-.61-1-.35-1.85-.36-.52,0-.76,0-1.28-.07-.17,0-.27.34-.52.3s-.31-.44-.6-.43c-.79,0-.93.23-1.72,0-.31-.07-.23-.54-.63-.53s-.75.78-1.2,1c-1.56.65-1.21-.84-1.82-1.8-1.07-1.68-1.84.93-2.38,2-.53-.2-1.07-.69-1.67-.54-.41.11-.4.67-.85.81s-.74-.3-1.1-.28c-1.13,0-1.67.45-2.8.16-.4-.1-.86-.43-1.29-.37s-.65.67-1.14.72c-1,.1-1.66-.8-2.81-.42-.67.22-.43.66-1.22.41s-1-.94-1.78-1.14c-.47-.13-.79.12-1.44-.15a4.94,4.94,0,0,1-1.55-.92,4.69,4.69,0,0,1-.85-3.07c-.39,2.67-.54,5.73.26,5.86a152.77,152.77,0,0,0,31.22-.56c16.12-1.91,36.08-6.88,36.7-7.91.37-.61-.14-3.18-.81-5.17C336.48,141.55,336.44,141.72,336.4,141.91Z"/><path class="cls-8" d="M339.76,230.32a7.23,7.23,0,0,0,4.34-1.72l-1.5-.58a7.25,7.25,0,0,1,3.54-1.47c2.59-.52,9.3-5.3,10.72-6.6a28.35,28.35,0,0,0,3-3.59,1.48,1.48,0,0,0-1.64-.19c-2.91,1.66-13.26,9.84-18.05,10.55s-17.38-.7-17.38-.7c-2.57-.47-3.15-.65-3.78.37a3,3,0,0,0,0,1.43,14.48,14.48,0,0,1,7.25.5C330.6,229.59,336.77,230.63,339.76,230.32Z"/><path class="cls-9" d="M344.1,228.6c-.52-.13-1.85-.34-1.63-1.09s3.4-1.47,4-1.8a54.22,54.22,0,0,0,7.44-5,31.09,31.09,0,0,0,4.92-4.72,1.17,1.17,0,0,0-.69.16c-2.91,1.66-13.26,9.84-18.05,10.55s-17.38-.7-17.38-.7c-2.57-.47-3.15-.65-3.78.37a2.06,2.06,0,0,0-.07,1.06c3.15-1,7.35.44,10.41.79,2.36.27,4.64.89,7,1.3C338.28,229.89,345.12,228.84,344.1,228.6Z"/><g class="cls-10"><path class="cls-3" d="M359.43,216.14a10.86,10.86,0,0,1,.82,1,3,3,0,0,1-.41,3.85c-.21.25-1.24,1.14-.79,1.51s1.66-.49,2.17-.57c.77-.12,1,.81.94,1.45-.11.81-1.51,1.69-2.09,2.28s-1,1.26.34.86a7.54,7.54,0,0,0,2-1.11c.2-.13.54-.58.81-.51.89.22-.1,1.54-.27,1.86a11.61,11.61,0,0,1-4.92,4.46c-2.73,1.32-5.37,2.86-8.14,4.1a43,43,0,0,0-4.51,2.24,10.87,10.87,0,0,1-1.08.54c11.4-2.43,20.68-10.26,20.79-11.42S362.16,217.31,359.43,216.14Z"/><path class="cls-3" d="M322.06,238c.92.52,7.08,1.93,16.4,1l-.46,0c-2.06-.18-4.06-.25-6.12-.33a16.66,16.66,0,0,1-3.22-.46c-1-.23-2.1-.23-3.13-.51a9.3,9.3,0,0,1-2.56-1c-.27-.18-1.13-.7-1.05-1.1.21-1,2.61-.87,3.27-1.29.49-.31,1-1,.4-1.37-.84-.5-2.09.27-3-.2-.43-.22-1.24-.7-1.35-1.2s.54-.81.54-1.19c0-.54-.62-.4-.89-.72s0-.71-.29-1-.54-.07-.88-.09a1.24,1.24,0,0,1-.67-.22C319.49,231.53,321.24,237.56,322.06,238Z"/></g><path class="cls-4" d="M352.42,228.47c-1.46-.82-5,1.85-5.61,2.22a12.49,12.49,0,0,1-3.74,1.48c-1.4.32-2.83.35-4.25.54-1.25.17-2.48.43-3.71.71-.5.12-2.62.37-1.29,1.05a6.06,6.06,0,0,0,2.47.27,25.54,25.54,0,0,0,3.91-.29,45.93,45.93,0,0,0,8.11-2,13.91,13.91,0,0,0,4.25-2.22C353.31,229.62,353.34,229,352.42,228.47Z"/><path class="cls-6" d="M314.53,228.38c-.78-.47-25.57,2.86-25.57,2.86s-22.45-5.8-23.47-5.16-1.12,9.7-.35,10.16,17.08,6.74,24,7.24,23.38-3.88,24-4.39S315.7,229.07,314.53,228.38Z"/><path class="cls-8" d="M289,231.24s-22.45-5.8-23.47-5.16c-.32.2-.55,1.19-.69,2.49a4.13,4.13,0,0,1,.66-.07,24.74,24.74,0,0,1,4.19.45c2.17.45,4,1.88,6.18,2.31,3.94.76,7.64,2.47,11.64,3.06,1.21.18,2.41.26,3.59.54.55.13,1.42.6,1.92.26-.07-.8-2.39-1-.83-2.05,1-.67,2.77-.53,4-.59a35.76,35.76,0,0,0,5.95-.66c1.12-.25,2.19-.6,3.3-.87s2.34-.25,3.5-.43,2.61-.87,3.77-.6a5.18,5.18,0,0,1,2.18,1.47c.15-1.55.13-2.78-.27-3C313.75,227.91,289,231.24,289,231.24Z"/><path class="cls-9" d="M289,231.24s-22.45-5.8-23.47-5.16c-.25.15-.44.77-.57,1.63,2.59-.89,5.74.5,8.16,1.31,2.79.94,5.58,1.93,8.42,2.71,2.53.7,5,1.29,7.54,2.09,1,.34,3.1,1.34,4.18,1-.31-.75-2.51-.69-1.28-1.92.71-.7,2.24-.65,3.13-.77,1.61-.23,3.24-.35,4.84-.65,2.09-.41,4.2-.85,6.31-1.14,1.67-.22,3.2-.95,4.9-1.1a4.41,4.41,0,0,1,2.44.21c.85.45.78,1.12,1.19,1.93,0,0,0,0,.05,0,.15-1.53.12-2.73-.27-3C313.75,227.91,289,231.24,289,231.24Z"/><path class="cls-11" d="M314.81,231.29c-.69-.16-2.29.9-3,1,1.14,1-.75,1.55-1.66,1.68a36.57,36.57,0,0,0-4.17.67c-.93.22-2.95.27-3.38,1.25,1.16,1.09,6.45-1.21,6.81.55.12.58-2.45,1.88-2.87,2.06a14.64,14.64,0,0,1-4.2,1.15c-1.2.14-2.38.34-3.57.51-1.47.22-2.84.94-4.29,1.14a38.72,38.72,0,0,1-7,.1,9.65,9.65,0,0,1-4.56-1c-1.18-.7-1.6-1.18-3-1.2a6.51,6.51,0,0,1-2.79-.36,13.1,13.1,0,0,0-1.68-.82c-2.26-.7-4.6-1.3-6.81-2.2-.6-.25-2.33-1-2.16-1.82.12-.58,1-.53,1.45-.72-.16-.8-1.57-1.1-2.18-1.58a5.74,5.74,0,0,1-1.09-1.18c-.1,2.6.06,5.39.48,5.64.78.46,17.08,6.74,24,7.24s23.38-3.88,24-4.39C313.46,238.75,314.51,234.35,314.81,231.29Z"/><path class="cls-12" d="M300.25,147c-.71.19-.18,6,.6,6S301,146.79,300.25,147Z"/><path class="cls-12" d="M305.56,146.46c-.71.19-.19,6,.6,6S306.27,146.27,305.56,146.46Z"/><path class="cls-13" d="M309.21,165.61a1.26,1.26,0,0,0-.68-.27c-.9-5-2.37-12.91-2.37-12.91a4.79,4.79,0,0,0,.23-3.32c-.05-.26-2,.65-2,2.48,0,1.23,1.34,8.9,2.36,13.79a1.3,1.3,0,0,0-.15,1.85,8.66,8.66,0,0,0,.69.6,4.51,4.51,0,0,0,.55,1.66c.55.08,1.35.36,1.34-.14,0-.08-.1-.69-.26-1.61l.33-.44S309.68,166.07,309.21,165.61Z"/><path class="cls-14" d="M307.93,165.55a3.3,3.3,0,0,0-1.14.41c-.16.2-.3.78,0,.87s.2-.2.67-.42a5.41,5.41,0,0,1,1.26-.33C308.83,166,308.14,165.5,307.93,165.55Z"/><path class="cls-14" d="M306.45,149.48c0-.12,0-.24-.06-.37s-2,.65-2,2.48c0,1,1,6.78,1.89,11.48-.44-3.72-1.27-10.93-1.14-11.76A2.77,2.77,0,0,1,306.45,149.48Z"/><path class="cls-13" d="M300.06,150.76c.12,1.48.37,2.26.79,2.19.14.71,2.92,20.42,2.78,20.55s-.81.71-.81,1,.13,1.72.47,1.87.79.07.81.25a13.54,13.54,0,0,0,.15,1.51,3,3,0,0,0,1.26.17,8.87,8.87,0,0,0-.18-1.83c0-.09.91-.6,1-1.06a3.9,3.9,0,0,0-.52-2.1c-.27-.24-.77-.16-.81-.24s-3-21.7-3.16-22.21a1.8,1.8,0,0,0-1.91-1.2Z"/><path class="cls-14" d="M304.88,172.2c-.58-4.09-2.9-20.86-3-21.31a1.8,1.8,0,0,0-1.91-1.2l0,.31c.37-.05,1.18,0,1.26,1.14.11,1.51,1.59,8.85,1.92,11.24s1.72,9.82,1.72,9.82Z"/><path class="cls-14" d="M305.21,173.39c-.17.19,0,.42-.45.79s-1.55.38-1.61.43,0,.27.28.37,1.79.6,2.25.35.27-1.44.13-1.6S305.34,173.26,305.21,173.39Z"/><path class="cls-14" d="M303.86,173.67c-.2.1-.76.46-.63.53s.78,0,.84-.1S303.86,173.67,303.86,173.67Z"/><path class="cls-15" d="M335.09,138.91c-.95.1-18.69,5.32-34.65,6.53a212.28,212.28,0,0,1-29.67-.21c.64.36.62,1.39,1,1.93.09-.11.21-.22.3-.31.31.6.48,1.89,1.28,1.56.33-.14.28-1.08.65-1.14.59-.1.3.35.64.65s.13.85.68.89.71-.9,1.1-1.08c1.23-.57.8.8,1.31,1.69.95,0,1-1.78,2.17-1.76.33,0,.39.61.82.62.15,0,.77-.56.91-.67a2.56,2.56,0,0,0,.29.34,4,4,0,0,1,1-.95c.32.51.68.49,1.25.48.41,0,.74-.44,1.16-.38s.43.45.76.52a6.58,6.58,0,0,0,2.57-.13c.24,0,.4-.44.7-.42a1,1,0,0,1,.42.3c-.33,0,1.07.4.74.2.08,0,.38-.29.57-.14s.07.63.2.89c.32.61.21,1.14.89,1.5.88-.67.45-2,1-2.75.3.47.54,1.08,1,1.33.33-.39.86-1.37,1.46-1.31,1.15.12.11,1.15,1.35.39.29-.18.81-.66,1-.77.38-.23.92-.44,1.32-.71.45.71.9.32,1.48.44.37.08,1.08.51,1.6.36.14.47.32,1.81.89,1.8.86,0,.53-1.48.81-1.88.4-.56,1.26-.79,2-1.15,0,.17.17.37.19.57.19-.1.61-.08.79-.17.24,1.08.85,1.7,1.67.67.11.14.3.23.39.34.26-.37.93-1.6,1.53-1.62.39,0,.47.62.93.64s.91-.65,1.29-.74c.73-.16.75.14,1.46.35a4,4,0,0,1,2.09,1.13c.57.53.67,1.14,1.23.45.38-.47.17-1.73.15-2.28,1.38.82.93.13,1.87-.53s1.08.54,2,0c.41-.24.22-.93.74-1.15.36-.16.53.5.92.41.71-.18.75-1.31,1.65-.5.06-.2.36-.51.4-.77.07,0,.76.38.8.37.24,0,.78-.39.88-.38.28,0,.79.37,1,.31s.62-.38.75-.41l.69-.36c.07,0,.39.31.61.24.63-.2.63-1.19,1.45-.63.54-1.2,1.18-.68,2.17-.67.43,0,.72-.3,1.24-.25s.95.48,1.42.69C336,139.94,335.48,138.87,335.09,138.91Z"/><path class="cls-4" d="M273.23,182.24a39.18,39.18,0,0,1-2.89-13.19c-.3-4.39.21-8.58-.82-12.81-.5,5.81-2.17,19.65-1,27.3,1.43,9.4,0,28.42-.47,34-.07,1-.22,2.16-.4,3.4a5.42,5.42,0,0,0,1.72-1.41,3.5,3.5,0,0,0,.73-2.29c0-.79-.2-1.62-.13-2.4.13-1.31.93-1.61,1.56-2.48,1-1.31-.24-3.14.62-4.61.5-.87,1.58-1.14,2.4-1.56.4-.2,2.84-1.16,3-1.58.31-.86-.69-.82-1.29-1.14a4.52,4.52,0,0,1-1.17-1c-1.06-1-3.16-1.52-3-3.19.09-1,1-1.19,1.3-2.08a4.79,4.79,0,0,0-.29-2.36c-.59-1.85-1.86-3.76-1.28-5.8,1.1.21,3.95,2.87,5,1.66.6-.71-.71-2.45-1-3.11C274.89,185.82,274,184,273.23,182.24Z"/><path class="cls-4" d="M321,208.19c-.89-1.2,1.15-2.34,1.59-3.3.58-1.24,0-1.3-1.25-1.31-1.59,0-2.38.39-3.38-1a11.9,11.9,0,0,1-1.74-4.1c-.33-1.16-1.24-2.15-1.49-3.32a4.3,4.3,0,0,1,1.48-3.81c.76-.8,3.49-2.68,3.25-3.92-3.56,0-4.3,3.69-7.37,4.41a6.54,6.54,0,0,1-4-.24c-1.12-.47-2.74-2.05-3.93-1.85a21.53,21.53,0,0,1,2.09,2.92c.65,1,1.62,1.76,2.22,2.74,1.18,1.92,1.05,5.63,1.14,7.86a4.63,4.63,0,0,0-1,.16c.22.37.59.75.57,1.25-.05,1.69-2.09.8-2.86,1.59.42,1.44,2.59,1.65,3.62,2.51a7.81,7.81,0,0,1,2.16,3.44c-.87-8.39-1.63-17.13-1.06-17.81,1.08-1.3,4.73,8.42,6.59,11.58.81,1.38,1.45,6.63,2,12.16a14.25,14.25,0,0,0,.55-4.72c-.29-2.93,2.07-1.84,3.7-3.14C323.38,208.87,321.63,209.11,321,208.19Z"/><path class="cls-4" d="M337.09,174.86c1.26.82,2.77-.07,4.09.49s.71,1.84,1.7,2.58c1.2.9,2.38-.21,2.76,1.75.45,2.35-1.53,4.64-2.2,6.76s.11,2.69,2.25,2.36c1.73-.27,3.38-1.77,4.08.34a21.25,21.25,0,0,1,.44,3.47,23.73,23.73,0,0,0,1.87,5.26c1.55,3.82,1.48,7.49.79,11.48-.17,1-2.46,3.85-1.58,4.7.7.68,1.85-1.11,2.21-1.49.87-.9.84-.91,1.82-.56.37.13.87.61,1.37.87-1.95-7-8.61-34.91-9.27-37-.72-2.33-5.77-7.21-4.69-8.33.81-.85-2.82-12.82-4.63-18.61.19,1.26.48,2.53.64,3.7.39,3,.73,5.87.86,8.88.14,3.45.07,6.18-2.17,8.87C336.36,171.62,335.23,173.65,337.09,174.86Z"/><path class="cls-4" d="M332.24,154.37c0,2.39-1.67,5-3.05,6.8-2.74,3.65-6.73,6.26-9.41,9.9-1.63,2.21,0,3.65,2.4,2.69,1.59-.62,3.66-3.19,5.44-2.85.37,1-.21,2.83.62,3.48,1.29,1,2.39-.74,2.94-1.64,2-3.19,2.31-7.13,3.59-10.62C335.56,160,339.12,150.05,332.24,154.37Z"/><path class="cls-4" d="M272.85,161.48c-.91,2.77,1.18,7.1,2.12,9.6,2.24,5.95,5.29,12.22,10.26,16.46.54.47,1.62,1.59,2.4,1.07s.08-2.2-.31-2.94c-1-1.82-2.43-3.33-2.63-5.46,1.44-.41,3.17,2.26,3.82-.4.76-3.13-2.35-4.06-4.76-4.16-1.4-.06-3.71-.75-2.36-2.34,1-1.21,4.05-.88,3.27-3.05-.69-1.93-3.73-3.06-5.48-3.67a6.85,6.85,0,0,1-4.52-4c-.3-.84,0-2.62-1-3.05C272.19,159,272.25,161,272.85,161.48Z"/><path class="cls-16" d="M29.89,150h-.13a.81.81,0,0,1-.68-.93l2.06-12.26c-3.2-.79-12.76-3.46-13.75-7.35-.22-.86-.14-2.16,1.46-3.54a4.92,4.92,0,0,1,4.46-1.24c3.65.84,6.79,5.83,8.39,8.87.81-4,2.86-11.61,7-13.77a5.45,5.45,0,0,1,5.14.08c1.71.83,2.6,2,2.65,3.46.13,4.27-7.71,9.73-11.75,12.26,196.59,13.44,125.05,12,322.83-1.83-4.32-.75-8.72-2.07-9.71-4.36-.35-.82-.47-2.13,1-3.76a5.89,5.89,0,0,1,4.78-2.08c5.12.19,10.81,6.28,13,8.8,1.45-3.18,5.56-11.29,10.2-12.23a4.77,4.77,0,0,1,4.44,1.51,4,4,0,0,1,1.39,4.08c-1.29,4.72-12.25,8.06-15.07,8.84l-1.27,8.73a.85.85,0,0,1-.93.69.8.8,0,0,1-.7-.92l1.2-8.26c-201.08,14.47-133,16-333,2.27l-2,12.27A.83.83,0,0,1,29.89,150Zm-7.66-23.83a3.52,3.52,0,0,0-2.3,1c-1.17,1-1,1.7-.94,1.92.59,2.31,6.87,4.69,11.62,5.95-1.55-3.09-4.62-8-7.68-8.75A3.34,3.34,0,0,0,22.23,126.21Zm18.85-5.38a3.56,3.56,0,0,0-1.64.41c-3.46,1.82-5.49,9.19-6.28,13.4,4.29-2.63,11.75-7.9,11.64-11.24,0-.31,0-1.23-1.73-2.06A4.55,4.55,0,0,0,41.08,120.83Zm312.26,4.37a4.24,4.24,0,0,0-3.29,1.54c-1.08,1.2-.81,1.83-.72,2,1.06,2.45,9.47,3.82,15.6,4.25-2.22-2.55-7.22-7.67-11.4-7.83Zm24.31-3.52a2.93,2.93,0,0,0-.58.06c-3.44.7-7.09,7.14-8.86,10.94,4.35-1.33,11.91-4.24,12.77-7.36a2.53,2.53,0,0,0-1-2.51A3.32,3.32,0,0,0,377.65,121.68Z"/><path class="cls-16" d="M371.09,154.49a.83.83,0,0,1-.81-.64L366,134.11a.8.8,0,0,1,.63-1,.83.83,0,0,1,1,.62l4.32,19.74a.8.8,0,0,1-.63,1A.5.5,0,0,1,371.09,154.49Z"/><path class="cls-16" d="M34.64,159.1a.8.8,0,0,1-.81-.71l-2.58-22.06a.82.82,0,0,1,.73-.9.83.83,0,0,1,.91.71l2.57,22.06a.81.81,0,0,1-.72.9Z"/><path class="cls-17" d="M270.65,138.37c0,1,.7,9.51,2.08,9.95s3.16.48,3.61-.31.41-8.52.45-9.41S270.6,137.12,270.65,138.37Z"/><path class="cls-17" d="M329.76,134.79c0,1,.7,9.5,2.07,10s3.16.48,3.62-.32.4-8.52.44-9.41S329.71,133.53,329.76,134.79Z"/><path class="cls-3" d="M88.73,143.82c.73.64,3.83,5.48,14.3,6.14s16.35-2.56,16.5-2.88-.08-1.13-.49-1a30.52,30.52,0,0,1-16,2.84,25.76,25.76,0,0,1-14.13-6Z"/><path class="cls-18" d="M89,143.34s2.88,4.3,13.08,5.88,16.68-2.73,16.68-2.73L115,160.6l-14.32,6.51-6.3-3L82.63,148.31Z"/><path class="cls-19" d="M118.77,146.49s-7.1,11.35-15.49,9.63-15-12.75-15-12.75l-.86,12.69,9.22,8.56L108.82,168l11.85-1.59,6.75-4.64.76-6.95Z"/><path class="cls-20" d="M142.09,190.88c1.19.13,16.73-17,17-19.64S139.29,152.07,137.9,151c-.63-.47-11.14-2.77-19.13-4.55-2.16,5.25-3.73,11.58-16.06,11-7.54-.37-14.26-7.92-13.7-14.12-6,.25-17.21.8-18.62,1-2.43.33-28.37,15.29-28.56,17s5.8,18.32,8.31,20.06,21.09-6.32,21.88-5.36-3,38.35-5.77,44.54-10,23.14-9.1,25.6,27.9,10.92,40,13.09,36.35-3.24,38-4.54-6.56-27.84-6.27-30.47-2.26-42.44-1-42.9S140.91,190.76,142.09,190.88Z"/><path class="cls-18" d="M116.11,154.75c1.87-1.52,3.69-7,4-8l-1.35-.3c-2.16,5.25-3.73,11.58-16.06,11-7.54-.37-14.26-7.92-13.7-14.12l-1.53.06c-.11,1.66,2,7,3.37,9.07s4.36,5.25,11.67,6.36A16.1,16.1,0,0,0,116.11,154.75Z"/><path class="cls-3" d="M89,143.05c-.56,6.2,6.14,14,13.68,14.41,12.33.61,13.9-5.72,16.06-11,.41-1.12,1.27-.67,1,.23-.15.54-3.06,13.23-17.19,11.73C89,157,88.06,144,88.25,143.37S89.06,142.75,89,143.05Z"/><path class="cls-3" d="M101,149.42c-.24.06-.29,1.37-.18,1.64s5.74.91,6,.64a2.75,2.75,0,0,0,.09-1.66C106.77,149.92,101.25,149.36,101,149.42Z"/><path class="cls-18" d="M50.37,180.07c-.86-1-2.08-3.86-4.07-8.25a70.56,70.56,0,0,1-3.76-11.27c-.44.38-.69.66-.71.83-.19,1.75,5.8,18.32,8.31,20.06.62.43,2.25.26,4.34-.23C53.15,180.81,51.24,181.08,50.37,180.07Z"/><path class="cls-3" d="M42,161.07c.05,1,2.35,7.53,4.11,11.65a59.2,59.2,0,0,0,4.8,8.95c.15.19-1.12.41-1.43-.15-.17-.31-4.3-7.84-5.45-11.31s-2.6-7.77-2.69-8.61C41.31,161.26,42,160.9,42,161.07Z"/><path class="cls-18" d="M158.71,170.2l-.33.49c-.1.14-1.92-1.84-2.66-1.59-.4.13-1.78,2.12-1.67,1.66s1.69,2.49,1.62,2.6c-2,3-3.76,6.8-4.89,8-1.88,2-8.94,7.46-11.37,7.16-.37,0-.7-.06-1-.07a19.63,19.63,0,0,0,3.67,2.42c1.19.13,16.73-17,17-19.64A2,2,0,0,0,158.71,170.2Z"/><path class="cls-3" d="M159,170.78a91.18,91.18,0,0,1-8.58,11.45c-2.81,2.88-8.32,8.11-8.64,8.53-.13.17.51.48.62.4.38-.28,7.39-6.76,10.18-10a88.64,88.64,0,0,0,6.79-9.81C159.53,171.1,159,170.67,159,170.78Z"/><path class="cls-19" d="M128.84,224.3c.29-2.62-2.26-42.44-1-42.9.56-.2,3.2,1.62,6.07,3.72l-.16-.18c-1.34-1.53-2.81-3-4.07-4.56a18.49,18.49,0,0,1-1.82-2.84c-.27-.52-.91-2-1.46-2.17-1.79-.64-.89,3.78-.79,4.58a9.8,9.8,0,0,1-1.17,6.06c-.43.64-1,1-1.22,1.74-.26,1,.3,2.16.45,3.15.36,2.23-.12,4.46.23,6.72a5.57,5.57,0,0,0,.5,2.07c.52.82,1.88,1.07,2,2.11.11.65-.4,1.16-.69,1.67a28.57,28.57,0,0,1-2.07,3.86c-1.9,2.37-4.79,3.26-7.55,4.24-1.6.57-6.75,2-4.59,4.5,1.66,1.91,5.71,1.15,7.84.75a28.38,28.38,0,0,1,7.55-.91c.48,1.55-1.55,2.68-2.41,3.65-1.15,1.32-3.51,4.3-3.46,6.2.09,3,4.43-.39,5.12,1.31.35.86-.74,3.2-.9,4.09-.26,1.53-.18,3.31,1.22,4.3,1.17.82,2.58,1,3.63,2.1A7.5,7.5,0,0,1,131.8,241c.24.82,1.13,4.36,2.34,5.82C132.22,238.4,128.65,226.05,128.84,224.3Z"/><path class="cls-19" d="M57.27,244.08c1.08-.31,1.78-2.25,2.79-2.46s1.81.62,2.17-1c.32-1.44-.56-2.73.86-4,1.15.56,2.33,1.82,2.53,0,.27-2.26-.23-8.41,1.72-7.62S82.42,239,79.8,236.21s-7.59-8.14-8.77-12a39.71,39.71,0,0,1-1.42-14.85c.55-3.9,2-7.72,2.29-11.65.16-2.28,1.17-4.38,3.69-4.93a11.56,11.56,0,0,0-.52-4,49,49,0,0,1-.95-5.76,12.49,12.49,0,0,1,.52-5.87c.5-1.75,2.28-3.59,2.34-5.34-1.57.36-3.24,2.07-4.72,2.82a59.18,59.18,0,0,1-6,2.81c3.12-1,5.52-1.79,5.79-1.46.8,1-3,38.35-5.77,44.54C63.91,225.85,58.39,238.7,57.27,244.08Z"/><path class="cls-21" d="M63.47,178.4v.07l1-.34C64.14,178.23,63.8,178.32,63.47,178.4Z"/><path class="cls-19" d="M115.7,161.82,112.08,163a31.83,31.83,0,0,1-5.07,1.63c-6.68,1-13.41-1.11-19.25-4.2a6,6,0,0,0-2.14-.82,1.86,1.86,0,0,0-1.94.92c-.43,1,.38,2,1.19,2.67a14.49,14.49,0,0,0,6.49,3,45,45,0,0,1,5.34.85c1.72.54,3.39,1.81,3.63,3.57.15,1.09-1.39,6,1,5.54,1.81-.34,3.19-2.69,4.3-3.92a22.44,22.44,0,0,1,5-4.09c3-1.76,7.91-1.86,10-4.83,2-2.8-2-2.47-3.63-2Z"/><path class="cls-18" d="M135.26,252.78c-.64,1.05-2.08,1.33-3,1.62-1.17.37-11.06,3.23-15.44,3.83a75.41,75.41,0,0,1-16.17.12c-4.24-.56-21-4.33-28.19-6.55a119.06,119.06,0,0,1-15.43-6.36,2.14,2.14,0,0,0,.08.78c.93,2.46,27.9,10.92,40,13.09s36.35-3.24,38-4.54C135.34,254.58,135.37,253.87,135.26,252.78Z"/><path class="cls-3" d="M57.08,245.84c-.34-.23-.31.39-.08.69s6.54,4.27,20.17,8.16,21.54,5.69,25.58,5.61,18.78-1.24,22.93-2.34,8.73-2.62,9.68-3,.28-1.06,0-.91-7.41,2.63-9.91,3.26-19.17,2.67-22.94,2.36c-8.81-.7-20.2-3.92-25.4-5.64S61,248.45,57.08,245.84Z"/><path class="cls-22" d="M155.72,169.1c-.36-.11-1.52.93-1.55,1.15a25.73,25.73,0,0,0,3.18,4.34c.38.12,1.78-2.05,1.63-2.19S156.22,169.24,155.72,169.1Z"/><path class="cls-17" d="M121.24,140.14c-.07,1.09-.3,10.23,1.13,10.85s3.32.85,3.89,0,1.38-9.06,1.52-10S121.33,138.79,121.24,140.14Z"/><path class="cls-17" d="M78.41,137.85c-.07,1.09-.3,10.24,1.13,10.86s3.32.85,3.89,0,1.38-9.06,1.51-10S78.5,136.51,78.41,137.85Z"/><path class="cls-23" d="M225.35,146.67c-1.17,1.92-13.66,38-14.16,41.84s16.73,34.42,23,35.43,12.75-3.09,10.88-12.63S232.91,188.85,232.56,187s14.4-32,12.69-33.8S226.49,144.78,225.35,146.67Z"/><path class="cls-24" d="M218.8,186.79c-.53-3-2.68-6.32-4.52-8.68a108.48,108.48,0,0,0-3.12,10.56c-.16,1.26,1.57,5.39,4.2,10.4C217.09,195.72,219.42,190.38,218.8,186.79Z"/><path class="cls-24" d="M231.55,222.41a6,6,0,0,0,2.67,1.53c5.45.88,11-2.07,11.2-9a12.37,12.37,0,0,0-7.84,2A30.44,30.44,0,0,0,231.55,222.41Z"/><path class="cls-25" d="M245.37,153.45l-19.92-6.89a.5.5,0,0,0-.1.11,23.06,23.06,0,0,0-1,2.5,68.75,68.75,0,0,1,10.08,2.65,62.2,62.2,0,0,1,10.09,5.61A11.4,11.4,0,0,0,245.37,153.45Z"/><path class="cls-24" d="M233.67,150.35c2.55,1,8,3.66,11.41,5.13.33-1.22.41-2,.17-2.3-1.7-1.81-18.76-8.4-19.9-6.51a6.81,6.81,0,0,0-.33.69C227.67,148.39,231.51,149.52,233.67,150.35Z"/><path class="cls-25" d="M216,185.65a26.68,26.68,0,0,0,2.66-5.58c.82-2.89.46-5.87.66-8.83a53.25,53.25,0,0,1,2.93-13c.73-2.24,1.77-5.27,1.61-7.78-3.64,9.77-12.22,34.86-12.63,38a9.45,9.45,0,0,0,.92,3.45,13.76,13.76,0,0,1,1.41-3C214.28,187.81,215.29,186.85,216,185.65Z"/><path class="cls-25" d="M234.22,223.94c3.89.63,7.82-.7,9.83-4a10.88,10.88,0,0,1-4.54.83c-1.85,0-3-.83-4.54-1.67-1.11-.59-2.5-.91-3.42-1.79s-1-1.93-1.81-2.72c-1.23-1.23-3.07-1.74-4.54-2.58-1.9-1.08-3.46-3.23-4.84-4.9-.38-.46-.76-.9-1.14-1.34C224.44,214.52,230.87,223.4,234.22,223.94Z"/><path class="cls-25" d="M232.56,187c-.09-.46.74-2.63,2-5.67l-.11,0c-.83.12-1.7-1.25-2.06-1.78-.75-1.11-2-3.72-1.89-.5.06,1.38.85,2.91.54,4.29-.25,1.12-.63.75-1.59.54-1.35-.31-4.21.51-2.12,2,.4.28,1.87.44,2.09.91s-.36.88-.6,1.31c-1,1.86.9,1.24,2,1.52,1.61.42,1.87,2.56,3.26,3.32.67.37.88.3,1.41.95s1.15,1.31,1.64,2a21.44,21.44,0,0,0,1.84,2.5,16,16,0,0,0,1.71,2C237.09,193.9,232.78,188.18,232.56,187Z"/><path class="cls-26" d="M236.68,155.18c-2.61-1.25-5.38-2.84-8.38-2.57-2.42.22-2.11,2-2.57,4.07-.59,2.7-2.14,6.33-1.53,9.11.42,1.94,2,2.56,3,.69,1.81-3.56.64-8.71,6.14-8.78C235.67,157.67,238.5,158.25,236.68,155.18Z"/><path class="cls-17" d="M224.05,141.19c0,1,.16,9.51,1.48,10s3.07.65,3.57-.12.87-8.47,1-9.35S224.08,139.94,224.05,141.19Z"/><path class="cls-23" d="M177.73,156.13c0,1.19,11.45,32.14,10.58,33.59s-2.92,23.91-1.37,28.34,9.3,6.14,12.29,2.12,7.45-30.83,7.07-33.43-9.06-38.5-10.36-38.86S177.7,154.33,177.73,156.13Z"/><path class="cls-24" d="M199.23,220.18a3.47,3.47,0,0,0,.26-.4,25,25,0,0,0-6.2-5.92c-2.23-1.34-4.9-1.05-6.89-.51a18.53,18.53,0,0,0,.54,4.71C188.48,222.48,196.24,224.2,199.23,220.18Z"/><path class="cls-24" d="M204.5,178.8c-1.64,2.26-3.39,5.43-3.13,8.51.35,4.11,2.45,8.53,3.56,10.62.94-5.53,1.51-10.17,1.37-11.18C206.19,186.05,205.5,183,204.5,178.8Z"/><path class="cls-25" d="M197.23,151c-.6-1.9-1.06-3.08-1.29-3.15a2,2,0,0,0-.73.08l-17.47,8.24c.06.34.42,1.45,1,3.07a91,91,0,0,1,8.59-5.6C189.78,152.35,194.64,151.45,197.23,151Z"/><path class="cls-24" d="M195.94,147.89c-1.31-.35-18.24,6.44-18.21,8.24a8.35,8.35,0,0,0,.31,1.13,116.33,116.33,0,0,1,18.48-8.3C196.26,148.31,196.06,147.93,195.94,147.89Z"/><path class="cls-25" d="M194.18,186.22c-.64-.4-1.84.41-2.64,0-2.39-1.19.53-4.55-.24-6.3-1.13.22-2,1.82-2.52,2.72s-.63,2.35-1.25,3.09c.63,2.2,1,3.69.78,4-.42.7-1.12,6.45-1.56,12.65a6,6,0,0,1,.52-1.53,4.86,4.86,0,0,1,1.45-1.64c.56-.41,1.75-.68,2.16-1.22s.1-.88,0-1.5a3.21,3.21,0,0,1,.11-1.62,10.49,10.49,0,0,1,.53-2.26c.35-.64,1.1-1.15,1.48-1.83a15.09,15.09,0,0,0,1.36-2.69C194.52,187.56,194.81,186.61,194.18,186.22Z"/><path class="cls-25" d="M198.82,156.49a20.54,20.54,0,0,1-.21,5.42,15.21,15.21,0,0,0-.16,5.7,12,12,0,0,0,3.1,5.43,7.9,7.9,0,0,0,1.78.94C201.92,168.23,200.24,161.62,198.82,156.49Z"/><path class="cls-25" d="M199.23,220.18c3-4,7.45-30.83,7.07-33.43-.06-.36-.27-1.39-.61-2.87-.27,2.26-.38,4.57-.86,6.81-.81,3.73-1.72,7.38-2.18,11.19a45.74,45.74,0,0,1-3.13,12.52,15,15,0,0,1-5.86,6.63,10.1,10.1,0,0,1-2.39.91C194.09,222.92,197.48,222.54,199.23,220.18Z"/><path class="cls-26" d="M195.54,152.54c-3.46,0-7.43,3.44-10,5.4-1,.76-4.95,3.52-1.54,4,1.34.2,3.37-.78,4.74-.95a6.25,6.25,0,0,1,3,0c1.73.76,1.09,2.37,1.23,3.94.1,1.09.4,2.48,1.58,1.47,1-.83,1.45-4,1.74-5.2A12.72,12.72,0,0,0,195.54,152.54Z"/><path class="cls-17" d="M191.11,141.92c0,1,.15,9.51,1.48,10s3.07.66,3.56-.11.88-8.47,1-9.36S191.13,140.66,191.11,141.92Z"/><circle class="cls-27" cx="160.91" cy="134.07" r="22.68"/><circle class="cls-27" cx="330.73" cy="178.13" r="12.29"/><path class="cls-27" d="M248.61,241.78h-.43a13,13,0,0,0-13-13,13,13,0,0,0,13-13h.43a13,13,0,0,0,13,13A13,13,0,0,0,248.61,241.78Z"/><circle class="cls-27" cx="74.05" cy="125.2" r="8.43" transform="translate(-64.81 168.51) rotate(-76.72)"/><circle class="cls-27" cx="164.84" cy="257.58" r="22.68"/></g></g></svg>