<svg xmlns="http://www.w3.org/2000/svg" viewBox="0 0 400 400"><defs><style>.cls-1{isolation:isolate;}.cls-2{fill:#394760;}.cls-3{fill:#a61d42;}.cls-4{fill:#da2c59;}.cls-5{fill:#8c1737;opacity:0.39;}.cls-6{fill:#d93760;}.cls-7,.cls-8{fill:#d02a54;}.cls-8{opacity:0.5;}.cls-12,.cls-8{mix-blend-mode:multiply;}.cls-9{fill:#9dc8eb;}.cls-10{fill:#84abda;}.cls-11{fill:#a9d5f2;}.cls-12{fill:#b4b4b4;opacity:0.31;}.cls-13{fill:#8d1737;}.cls-14{fill:#a31c41;}.cls-15{fill:#7d1231;}.cls-16{fill:#fdb92a;}.cls-17{fill:#fec241;}.cls-18{fill:#ffc855;}.cls-19{fill:#faa22d;}.cls-20{fill:#dc3c44;}.cls-21{fill:#f04e57;}.cls-22{fill:#f15f68;}.cls-23{fill:#fff;}</style></defs><g class="cls-1"><g id="Layer_1" data-name="Layer 1"><circle class="cls-2" cx="200" cy="200" r="107.38"/><path class="cls-3" d="M284.84,203.85c3.94-.2,6.45,6,5.42,9.92a21,21,0,0,1-2.59,6.2l7.4,8-4.58,7L287,239.85,217.87,262,209,243.06l3.64-9,15.2-14Z"/><path class="cls-4" d="M284,196.59c6.86.29,5.88,7.26,3,9.55s-54.45,21.85-57.21,25.7-1.72,7.55,1.8,9.79,53.37-24.87,57.6-23.9,8.41,4.16,8.41,9.62-.26,10-7,12.82-57.41,24.46-60.81,24.46-10.44-1-9.48-4.25S283.83,238.57,287,236s3.2-10.59,0-11.39-63.57,28.7-66.37,26.46S215.84,227,215.84,227l44.61-25.66Z"/><path class="cls-5" d="M284.84,223.34c-3.65.48-52.79,23.09-57,23.89s-5.14-1-5.14-1l-1.52,4.93c6.51.06,62.77-27.35,65.85-26.58s3.22,8.82,0,11.39c-2.8,2.23-50.51,16.61-63.47,22.41l1.72,2s24.08-10.33,31.76-13,28.08-8.23,31-9.67,2.08-8.18,2.56-10.9S288.5,222.86,284.84,223.34Z"/><path class="cls-6" d="M107.85,220.73c-3.92,5-2.31,30.67,2.5,33.88s118.59,9.9,117.5,9.94-3.07-1.12-2.56-4.1c-1.72-2-3.1-7.29-2.58-14.18-4.15-14.1,1.34-21.52,2.77-21.42l-91.4-7.12Z"/><path class="cls-7" d="M222.7,247.55c0-.44,0-.85,0-1.28-2.47,2.42-7.33.64-14.39,1.44s-71.51-5.13-81.78-5.77c-8.93-.56-17.49-3.43-20.84-6,.29,7.6,1.75,15.55,4.07,18.1,1-.77,4.11-.87,5.23-1.4,3.6-1.69,101.66,5.61,105.67,6.58,1.77.42,3.38.85,4.62,1.19C224,258,222.75,254.07,222.7,247.55Z"/><path class="cls-3" d="M107.86,250.29c2.09.9,104.66,6.71,116.27,7.37a29.39,29.39,0,0,1-1.28-6.73c-2.34,1.59-115.29-7.19-116.47-7.37C105.88,246.26,106.24,248.61,107.86,250.29Z"/><path class="cls-5" d="M289.23,217.73c-4.23-1-54.07,26.15-57.6,23.9s-4.55-5.95-1.8-9.79,54.34-23.41,57.21-25.7c1.86-1.48,2.92-4.91,1.58-7.23-.92,3.27-.45,5-8.62,8.23s-48.82,18.76-52.15,24.54-.77,12.86,4.36,11.88,47.86-21.18,52.63-22.95a25.42,25.42,0,0,1,8.74-1A12.08,12.08,0,0,0,289.23,217.73Z"/><path class="cls-8" d="M284,196.59l-23.59,4.78-40.12,23.08,5.15.4,61.88-27.31,1.27,1.37C287.9,197.64,286.46,196.7,284,196.59Z"/><path class="cls-7" d="M284,196.59l-23.59,4.78-40.12,23.08-86.25-6.72-26.23,3c-1,1.31-1.66,4-2,7.35h.29s1.08-3.72,3.43-4.85,28,4.85,42.12,4.85,54.52-2.86,59.22-2.49,10.25,7.31,10.25,7.31,2.85-4.82,6.89-6.53,60.54-27.47,60.54-27.47C287.9,197.64,286.47,196.7,284,196.59Z"/><path class="cls-9" d="M284.7,185.46s2.15,2.88,1.74,5.43a33.12,33.12,0,0,0-.32,5.41l-52.71,25.94-5.56-4.68.21-6.05,36.05-23.85Z"/><path class="cls-10" d="M227.55,224.61c1.3.73,54.85-24.1,58.54-26.45,1.37-.87,1.18-2.38,0-2.12-9.25,1.94-50.63,23.19-53.13,21.69-2.83-1.7-3-5.88,6.12-10.38s43-18.12,44.82-20.3,1-5.88-1.33-6.32-65.3,26.52-65.3,26.52-3.41,15.29-2.74,14.35,4.78,1.12,4.78,1.12S226.25,223.87,227.55,224.61Z"/><path class="cls-9" d="M228.08,209.05c-4.29,3.56-3.7,14.16-.53,15.56s-117.65-3-122.11-4.15-3.48-12.73-.81-15.23,109.85-1.93,111.16-2.52S228.08,209.05,228.08,209.05Z"/><path class="cls-9" d="M179.77,177.7c-7,2.56-77.61,23.39-75.14,27.53s120.08,5.33,123.45,3.82c3-1.34,48-19.33,56.33-25.56,1-.75,0-1.58-.37-2.12C282,178.52,186.78,175.13,179.77,177.7Z"/><path class="cls-10" d="M234,214.48c.94,1.89,39.45-15.09,52.21-20.77a17.81,17.81,0,0,0,.74-2.82,3.63,3.63,0,0,0-1-2.77C284.4,190.48,231.59,209.66,234,214.48Z"/><path class="cls-11" d="M109.14,206.14c-4.56.05-7.19,3.79,44.4,5.73s74.45,2.57,68.14.87S117.8,206.05,109.14,206.14Z"/><path class="cls-10" d="M179.77,177.7c-6,2.2-59,17.89-72.21,24.88a2.93,2.93,0,0,0,.29,1.27c.76,1,35.56,3.28,53.52,4.08s55.35,1.67,57.91,1.75S284,181.37,284,181.37C282.69,178.15,186.78,175.13,179.77,177.7Z"/><path class="cls-12" d="M252,194.4s-33.15,14.24-34.54,17.77-2.89,4-2.73,7.35a13.79,13.79,0,0,0,1.07,5.1s-3.66,1.86-3.19,3.69-.21,3.63,0,4.6-30.52-9-30.52-9-21.73-3.34-28.86-6.18-24.46-13.06-24.46-13.06l46-9.18Z"/><path class="cls-13" d="M252,193.71s-35.67,14.9-36.77,17S209,230.45,208,230.61s-96.25-27.77-96.25-27.77l123.43-17.38,20.06,5.88Z"/><path class="cls-14" d="M215.27,210.72c1.1-2.11,36.77-17,36.77-17l3.18-2.37a16,16,0,0,1-4.49,2.37c-2.47.78-35.68,15-36.31,15.84S208,230.61,208,230.61C209,230.45,214.17,212.83,215.27,210.72Z"/><path class="cls-15" d="M112,202.8,122.6,206l91.35,4.7.47-1.17c5.86-3.62,37.62-15.84,37.62-15.84l3.18-2.37-20.06-5.88Z"/><path class="cls-14" d="M215.27,210.72c1.1-2.11,36.77-17,36.77-17l3.18-2.37a16,16,0,0,1-4.49,2.37c-2.47.78-35.68,15-36.31,15.84S208,230.61,208,230.61C209,230.45,214.17,212.83,215.27,210.72Z"/><path class="cls-15" d="M112,202.8,122.6,206l91.35,4.7.47-1.17c5.86-3.62,37.62-15.84,37.62-15.84l3.18-2.37-20.06-5.88Z"/><path class="cls-16" d="M108.67,190.64s-2.72,3.57-1.44,5.81a27.88,27.88,0,0,0,3.92,4.84l101.13,6.64,3.56-6.34L213.53,196l-42.13-9.67Z"/><path class="cls-17" d="M219.62,208.09s-108.14-2.21-110.1-6.12,99.58,4.15,101.63,1.57.76-6.56-9.38-7.57-89.29-2.73-91.77-4.13-3-5.14-1-6.38,113.13,2.76,113.13,2.76,8.56,13.12,7.6,12.47-4.08,2.73-4.08,2.73Z"/><path class="cls-16" d="M212.65,193.71c5.25,1.82,9.45,12,7,14.38,0,0,56.6-24.07,60.38-26.68s3.38-14.17,0-15.58-56.64,17.73-58.07,17.63S212.65,193.71,212.65,193.71Z"/><path class="cls-16" d="M193.93,164.36c7.46-.06,86.93-3.27,86.07,1.47s-63.68,28.11-67.35,27.88-104.93-3.64-104.8-7.13S186.47,164.42,193.93,164.36Z"/><path class="cls-17" d="M209,200.87c-.23,2.11-86.15-1.19-100.09-2a18.8,18.8,0,0,1-1.69-2.38,3.69,3.69,0,0,1-.07-2.92C109.48,195.18,209.57,195.52,209,200.87Z"/><path class="cls-18" d="M276.07,167.24c-2.35-1.49-60.4,23.09-58.53,25.23S278.42,168.74,276.07,167.24Z"/><path class="cls-19" d="M193.93,164.36c-5.52,0-49.93,10.28-72.7,17,0,0-4,4.52,0,5.63s34.39,4.25,46.55,4.81,36,1.13,38.49,0,69.87-27.52,69.87-27.52C260.23,161.92,200.36,164.31,193.93,164.36Z"/><path class="cls-20" d="M269,140.56s-29.65.71-44.83-.1-20.58-6.06-28.33-2.22c-6.94,3.43-69.57,22.58-69.57,22.58l81,6.4Z"/><path class="cls-20" d="M203.55,189.52c1.35-.4,67-23.06,71-26.11s3.3-21.23-5.62-22.85-65.41,16.83-65.41,16.83Z"/><path class="cls-21" d="M128.56,178.83s-9.12,2.78-5.88,6.83,68.35,5.08,78.4,4.27S222.7,168.71,216,163.64c-15.68-11.79-29.15-1.23-50.74-.39-18.77.72-33.56-4.3-39-2.43C114.56,164.83,114.54,175.07,128.56,178.83Z"/><path class="cls-22" d="M129,179.89s-2,3.2,7.67,3.31,40.94-.54,46-.43,16.36-.46,19.35-2.05a8.26,8.26,0,0,0,3.85-4.63l-5.67,2.39-7.48,1.41Z"/><path class="cls-20" d="M132.32,166c-4.93,2.38,10.49,7.84,29.1,5.18s32.05-6.14,36.55-2.74,5.83,8.44-.4,10-69,.37-69,.37,0,3.82,9.51,3.34c4-.2,29.84-.12,42.38,0s23.82-1.59,25.55-6.54-5.21-11.5-9.7-12.17-25.32,5.77-36.76,6.25S135.82,164.32,132.32,166Z"/><path class="cls-22" d="M216.46,163.25c-11.87-13.4-28.6-2.7-50.62-1.75-18.28.79-34.32-2.51-39.61-.68-5.86,2-8.78,5.6-8.46,9.14,0,0,0-4.22,10.79-6.71,6.05-1.41,22.11,1.86,38.19.83,12.53-.81,28.48-5.64,34.05-4.61,12.71,2.36,17.17,7.6,16.45,13.34C219.18,170.69,217.78,164.73,216.46,163.25Z"/><path class="cls-22" d="M161.42,171.2c-15.23,2.18-28.32-1.08-29.87-3.65.34,2.34,3,4.87,11.83,6.24,15,2.34,37.63-3.85,42.76-4.7s14,1.42,14,1.42l-2.84-2.44C192.25,165.38,179.22,168.66,161.42,171.2Z"/><path class="cls-21" d="M263.66,142.87c-3.73-2.08-45.79,13.26-44.45,15.59S266.51,144.46,263.66,142.87Z"/><circle class="cls-23" cx="263.79" cy="145.13" r="12.89" transform="translate(-35.46 111.99) rotate(-22.5)"/><circle class="cls-23" cx="128.56" cy="235.1" r="7.68"/><circle class="cls-23" cx="234.76" cy="208.4" r="15.19" transform="translate(-30.35 40.3) rotate(-9.22)"/><circle class="cls-23" cx="173.33" cy="145.55" r="18.53"/></g></g></svg>