<svg xmlns="http://www.w3.org/2000/svg" viewBox="0 0 400 400"><defs><style>.cls-1{isolation:isolate;}.cls-2{fill:#394760;}.cls-3{fill:#84abda;}.cls-4{fill:#a9d5f2;}.cls-5{fill:#c0e5f9;}.cls-6{fill:#9dc8eb;}.cls-13,.cls-17,.cls-19,.cls-7{fill:#85b8e3;}.cls-34,.cls-36,.cls-7{opacity:0.28;}.cls-13,.cls-17,.cls-18,.cls-34,.cls-36,.cls-44,.cls-7{mix-blend-mode:multiply;}.cls-8{fill:#5879bc;}.cls-9{fill:#9e1c20;}.cls-10{fill:#e96c24;}.cls-11{fill:#de444e;}.cls-12{fill:#cee2e9;}.cls-12,.cls-15,.cls-30,.cls-35{mix-blend-mode:overlay;}.cls-13,.cls-18{opacity:0.55;}.cls-14{fill:#f5fbfe;opacity:0.42;mix-blend-mode:screen;}.cls-15{opacity:0.53;}.cls-16{fill:#010101;}.cls-17{opacity:0.2;}.cls-20{fill:#394762;}.cls-21{fill:#5c7eb4;}.cls-22{fill:#ffe9b8;}.cls-23,.cls-29,.cls-30,.cls-35,.cls-38,.cls-39{fill:#fff;}.cls-23{opacity:0.65;}.cls-24{fill:#fdb622;}.cls-25{fill:#ffe372;}.cls-26,.cls-34{fill:#fec241;}.cls-27{fill:#fafbfc;}.cls-28{fill:#a61d42;}.cls-30{opacity:0.82;}.cls-31{fill:#f0a61f;}.cls-32{fill:#914c21;}.cls-33{fill:#e6e6e5;}.cls-35{opacity:0.21;}.cls-36{fill:#efae22;}.cls-37{fill:#aadcf7;}.cls-38,.cls-41{opacity:0.68;}.cls-39,.cls-40,.cls-43{opacity:0.26;}.cls-40{fill:#f8acad;}.cls-42{opacity:0.92;}.cls-44{fill:#b4dff7;opacity:0.6;}.cls-45{fill:#f04e57;}.cls-46{fill:#dc3c44;opacity:0.44;}.cls-47{fill:#f58e83;}.cls-48{fill:#f37a6d;}.cls-49,.cls-50,.cls-51{fill:#f79d94;}.cls-50{opacity:0.24;}.cls-51{opacity:0.17;}</style></defs><g class="cls-1"><g id="Layer_1" data-name="Layer 1"><circle class="cls-2" cx="215.13" cy="201.34" r="107.38"/><path class="cls-3" d="M305.49,90.54s1.8,175.94.93,179.17-25.85,25.55-25.85,25.55l-47.9-108,31-81.43Z"/><path class="cls-4" d="M130.58,111.44c2.46-1,37.94-20,40.56-20.9s132.12-2.17,134.35,0S278.27,113,278.27,113L218.1,131.17Z"/><path class="cls-5" d="M171.14,90.54c-2.62.89-38.1,19.89-40.56,20.9l28.21,6.36c12.66-9.25,27.7-15.92,42.49-20.49,20.44-6.3,43.42-6.37,64.59-5.26,9.52.5,23.66.75,34,4.9,3.79-3.15,6.33-5.71,5.61-6.41C303.26,88.37,173.76,89.65,171.14,90.54Z"/><path class="cls-6" d="M130.58,111.44c-.94,4.24-.77,181.08,0,183.82,1.46,5.26,147.24,1.95,150,0s2.2-182.23,0-183.82S131.74,106.19,130.58,111.44Z"/><circle class="cls-7" cx="206.89" cy="212.82" r="60" transform="translate(-47.77 365.28) rotate(-76.72)"/><circle class="cls-8" cx="206.89" cy="207.48" r="60" transform="translate(-23.8 26.83) rotate(-7.02)"/><path class="cls-9" d="M234.8,207c-4.11-6.09-11.36-2.82-18-4.13-2.05-.4-5.28-3-7.12-2.82-3.13.37-4.51,5.27-7.95,5.46-4.6.27-5.93-3.29-10.91-.18-3.09,1.92-10.93,8.13-10.7,12.2,1-.81,4.67.45,5.73,1.53s.42,3.86,1.77,5.45c1.67,1.95,4,2.25,6.42,2.21,4.51-.07,9.17-3.09,11.42,2.55,1.65,4.16.34,10,1.8,14.46,2.22,6.86,6.9,5.85,12.21,2.55,5.55-3.47,7.65-8.56,10.88-14,2.57-4.28,10.53-9.89,10.14-15.25C240.32,214.22,236.44,209.44,234.8,207Z"/><path class="cls-10" d="M205.41,227.4c-3.82-1.87-2.48-3.17-2.85-6.84-.4-3.95.17-3.58-4.27-5.29-3.91-1.51-9.73-1.57-12-5.41-3.65-6.15,2.35-12.9-4.15-18.45-4.36-3.71-11.8-5-18.74-4.41A48.08,48.08,0,0,0,214,255c.21-.26.41-.52.6-.79,3.73-5.33,9.52-17,4.07-22.76C215.18,227.84,209.35,229.33,205.41,227.4Z"/><path class="cls-11" d="M198.69,239.31a31.91,31.91,0,0,0-9.06,13.05,48.07,48.07,0,0,0,52-78.08c-5.47,3.06-11,7.82-12.43,13.05-1.1,4.14,1.23,8.65.5,12.75-1.41,7.94-14.83,10.1-21.06,13.71-7.05,4.07-17.91,18.74-2.7,19.85C204.23,236,201,237.39,198.69,239.31Z"/><circle class="cls-12" cx="206.89" cy="207.48" r="48.08" transform="translate(-24.32 387.47) rotate(-82.98)"/><path class="cls-13" d="M272.52,203.21c-.71-3.53-6.12-3.39-6.12-3.39l.14,1.12a40.56,40.56,0,0,0-5.78-.83,55.42,55.42,0,0,0-6.35,0,48.08,48.08,0,0,0-95.56,5.94c5.15-17.49,17.73-41.46,48-43.08,27.08-1.45,39.73,19.5,45.61,38.08a5.54,5.54,0,0,0-2.47,3c-.75,2.79-1.29,7.84-1.18,14.6s2.34,7.51,2.34,7.51l.61-1.5s2.63.32,5.64.65a24.65,24.65,0,0,0,7-.65l-.32,1s4.53-.46,5.92-1.21,2.25-3,2.68-7.73S273.14,206.3,272.52,203.21Z"/><path class="cls-5" d="M269.69,202.34c-2.14-.51-15.67-2.87-17.16,0s-3.29,19.58,0,21.46,15.5.29,17.16-.57S273.49,203.23,269.69,202.34Z"/><path class="cls-14" d="M225.16,218.5A40.14,40.14,0,0,1,185,178.36c0-1.32.07-2.63.19-3.92A40.14,40.14,0,1,0,245,213.26,39.93,39.93,0,0,1,225.16,218.5Z"/><path class="cls-14" d="M206,172.13c-5.91,4.49,21,37.39,31.32,27.06S214.57,165.58,206,172.13Z"/><g class="cls-15"><path class="cls-16" d="M230.46,216.54c3.67-6.89,5.26-14.3.64-21.19-4.36-6.51-12-9.48-19.58-9.78-8.09-.33-16.91,2.28-21.46,9.45-3.81,6-3.08,15.87,4.49,18.47,1.8.63,2.67-1.68,1.69-2.9-3.71-4.57-4.33-10.21-.07-14.75s11.17-5.56,17.07-5c6.16.59,12.34,3.61,14.89,9.54s-.81,12.5-4.13,17.56c-7,10.63-22.88,12.84-33.85,7.64a24.94,24.94,0,0,1-13.77-28.87C179.71,184,192,170.9,205.63,170.08a.82.82,0,0,0,0-1.63c-15.11-.16-28.15,13.11-32.51,26.8A28.55,28.55,0,0,0,190,230.49a35.12,35.12,0,0,0,23.67.71C221.43,228.69,226.67,223.66,230.46,216.54Z"/><path class="cls-16" d="M243.2,203a.94.94,0,0,0-1.81.49,29.64,29.64,0,0,1-4.77,20.06c-3.72,5.83-9.07,10.19-13.33,15.57-.53.67.16,1.88,1,1.3C235.57,232.63,247.49,217.46,243.2,203Z"/><path class="cls-16" d="M213.05,241.54c-4.36.9-8-.14-12.18-.87a.93.93,0,0,0-.76,1.61c3.75,2.84,9.18,2.31,13.21.47C213.92,242.47,213.79,241.39,213.05,241.54Z"/><path class="cls-16" d="M181.46,197.43l0-.16a.33.33,0,0,0-.33-.24c-3.48.38-2.81,9-2.37,11.11a15.86,15.86,0,0,0,8.74,11.4c.7.34,1.61-.6.9-1.17a20,20,0,0,1-6.79-9.12,17.39,17.39,0,0,1-.82-6.29c.06-1.33.39-2.62.53-3.94a6.43,6.43,0,0,0-.05-1.25l.09,0A.27.27,0,0,0,181.46,197.43Z"/><path class="cls-16" d="M167.61,187c-2.46,3.66-3.25,8.59-3.52,12.89-.05.69,1,.82,1.2.16,1.05-4.14,2.71-8.39,3.33-12.62A.56.56,0,0,0,167.61,187Z"/><path class="cls-16" d="M224,205c.76-3.28-1.41-6.59-3.7-8.76-.61-.58-1.41.28-.9.9,2,2.41,2.46,5.23,3.68,8A.51.51,0,0,0,224,205Z"/><path class="cls-16" d="M222.74,209c-.37.7-.78,1.4-1.1,2.13a4.92,4.92,0,0,0-.63,2.09.66.66,0,0,0,1.11.46,5,5,0,0,0,1-1.94c.26-.75.43-1.55.64-2.32C223.89,208.87,223,208.47,222.74,209Z"/></g><path class="cls-17" d="M280.57,295.26s25-22.33,25.85-25.55c.41-1.52.23-40.94-.07-82.41-2,18.79-4.81,40.33-7.66,49.61C293.14,255,282.16,258,282.16,258s-64.07,39.79-120.62,7.69c-14.77-8.38-23.26-20.87-31-32.77-.06,33.15-1.71,61.1,0,62.35C135,298.48,277.82,297.21,280.57,295.26Z"/><g class="cls-18"><path class="cls-19" d="M186.18,117.58c-.35,1.08-1.21,5.48-.77,5.77s7.32,1.64,8,.77-.33-7.17-.77-7.31S186.18,117.58,186.18,117.58Z"/></g><path class="cls-4" d="M185.41,116.81c-.35,1.08-.44,6.25,0,6.54s6.55.87,7.27,0,.44-6.4,0-6.54S185.41,116.81,185.41,116.81Z"/><path class="cls-5" d="M192.82,117c0-.13-.09-.22-.14-.23-.43-.15-7.27,0-7.27,0-.35,1.08-.44,6.25,0,6.54a6,6,0,0,0,1.47.28,14.93,14.93,0,0,1,1.5-2.19A24.93,24.93,0,0,1,192.82,117Z"/><g class="cls-18"><path class="cls-19" d="M199,117.58c-.35,1.08-1.21,5.48-.77,5.77s7.32,1.64,8,.77-.33-7.17-.77-7.31S199,117.58,199,117.58Z"/></g><path class="cls-4" d="M198.23,116.81c-.35,1.08-.44,6.25,0,6.54s6.55.87,7.27,0,.44-6.4,0-6.54S198.23,116.81,198.23,116.81Z"/><path class="cls-5" d="M205.64,117c0-.13-.09-.22-.14-.23-.43-.15-7.27,0-7.27,0-.35,1.08-.44,6.25,0,6.54a6,6,0,0,0,1.47.28,14.93,14.93,0,0,1,1.5-2.19A24.93,24.93,0,0,1,205.64,117Z"/><g class="cls-18"><path class="cls-19" d="M211.82,117.58c-.35,1.08-1.21,5.48-.77,5.77s7.31,1.64,8,.77-.33-7.17-.77-7.31S211.82,117.58,211.82,117.58Z"/></g><path class="cls-4" d="M211.05,116.81c-.35,1.08-.44,6.25,0,6.54s6.54.87,7.27,0,.44-6.4,0-6.54S211.05,116.81,211.05,116.81Z"/><path class="cls-5" d="M218.46,117c-.05-.13-.09-.22-.14-.23-.44-.15-7.27,0-7.27,0-.35,1.08-.44,6.25,0,6.54a6,6,0,0,0,1.47.28,14.93,14.93,0,0,1,1.5-2.19A24.93,24.93,0,0,1,218.46,117Z"/><g class="cls-18"><path class="cls-19" d="M224.64,117.58c-.35,1.08-1.21,5.48-.77,5.77s7.31,1.64,8,.77-.33-7.17-.77-7.31S224.64,117.58,224.64,117.58Z"/></g><path class="cls-4" d="M223.87,116.81c-.35,1.08-.44,6.25,0,6.54s6.54.87,7.27,0,.44-6.4,0-6.54S223.87,116.81,223.87,116.81Z"/><path class="cls-5" d="M231.27,117c0-.13-.08-.22-.13-.23-.44-.15-7.27,0-7.27,0-.35,1.08-.44,6.25,0,6.54a5.9,5.9,0,0,0,1.47.28,15.67,15.67,0,0,1,1.49-2.19A25.63,25.63,0,0,1,231.27,117Z"/><g class="cls-18"><path class="cls-19" d="M237.46,117.58c-.35,1.08-1.21,5.48-.77,5.77s7.31,1.64,8,.77-.34-7.17-.77-7.31S237.46,117.58,237.46,117.58Z"/></g><path class="cls-4" d="M236.69,116.81c-.35,1.08-.44,6.25,0,6.54s6.54.87,7.27,0,.43-6.4,0-6.54S236.69,116.81,236.69,116.81Z"/><path class="cls-5" d="M244.09,117c0-.13-.08-.22-.13-.23-.44-.15-7.27,0-7.27,0-.35,1.08-.44,6.25,0,6.54a5.89,5.89,0,0,0,1.46.28,16.66,16.66,0,0,1,1.5-2.19A25.28,25.28,0,0,1,244.09,117Z"/><g class="cls-18"><path class="cls-19" d="M250.27,117.58c-.35,1.08-1.2,5.48-.77,5.77s7.32,1.64,8.05.77-.34-7.17-.77-7.31S250.27,117.58,250.27,117.58Z"/></g><path class="cls-4" d="M249.5,116.81c-.35,1.08-.43,6.25,0,6.54s6.55.87,7.28,0,.43-6.4,0-6.54S249.5,116.81,249.5,116.81Z"/><path class="cls-5" d="M256.91,117c0-.13-.09-.22-.13-.23-.44-.15-7.28,0-7.28,0-.35,1.08-.43,6.25,0,6.54a6.14,6.14,0,0,0,1.47.28,15.75,15.75,0,0,1,1.5-2.19A24.93,24.93,0,0,1,256.91,117Z"/><g class="cls-18"><path class="cls-19" d="M263.09,117.58c-.35,1.08-1.2,5.48-.77,5.77s7.32,1.64,8.05.77-.34-7.17-.77-7.31S263.09,117.58,263.09,117.58Z"/></g><path class="cls-4" d="M262.32,116.81c-.35,1.08-.43,6.25,0,6.54s6.55.87,7.28,0,.43-6.4,0-6.54S262.32,116.81,262.32,116.81Z"/><path class="cls-5" d="M269.73,117c0-.13-.09-.22-.13-.23-.44-.15-7.28,0-7.28,0-.35,1.08-.43,6.25,0,6.54a6,6,0,0,0,1.47.28,14.93,14.93,0,0,1,1.5-2.19A24.93,24.93,0,0,1,269.73,117Z"/><g class="cls-18"><path class="cls-19" d="M184.9,128.78c-.6,1.84-2.05,9.32-1.31,9.81s12.43,2.79,13.66,1.31-.56-12.18-1.3-12.43S184.9,128.78,184.9,128.78Z"/></g><path class="cls-4" d="M183.59,127.47c-.59,1.84-.74,10.63,0,11.12s11.12,1.48,12.36,0,.74-10.87,0-11.12S183.59,127.47,183.59,127.47Z"/><path class="cls-5" d="M196.18,127.87c-.08-.22-.15-.37-.23-.4-.75-.25-12.36,0-12.36,0-.59,1.84-.74,10.63,0,11.12a10.06,10.06,0,0,0,2.5.47,25.69,25.69,0,0,1,2.54-3.71A42.34,42.34,0,0,1,196.18,127.87Z"/><path class="cls-13" d="M140.44,114.76c-1.59.59-1.13,25.7-.79,26.45s40.08.84,41.06-.28.53-26.16-.83-27.35S142.45,114,140.44,114.76Z"/><path class="cls-4" d="M139.6,113.82c-1.59.59-.34,25.42,0,26.17s39.29,1.12,40.28,0,1.36-25.22,0-26.41S141.61,113.07,139.6,113.82Z"/><path class="cls-5" d="M180.37,115.48a4.21,4.21,0,0,0-.49-1.9c-1.37-1.19-38.27-.51-40.28.24-1.54.57-.41,23.87,0,26a84.23,84.23,0,0,1,10.51-10.36c8.54-7.08,19.41-10.83,29.59-13.82Z"/><path class="cls-20" d="M199.57,127.36c-.69.7-.87,11.15,0,12s69.87,2.44,71,1.33.79-12.93,0-13.24S201.53,125.39,199.57,127.36Z"/><path class="cls-21" d="M200.33,128.28c1.89-1.89,64.79-.35,70.61.06-.09-.51-.21-.83-.33-.88-.78-.31-69.08-2.07-71-.1-.69.7-.87,11.15,0,12a1.23,1.23,0,0,0,.47.12C199.52,136.83,199.73,128.88,200.33,128.28Z"/><path class="cls-4" d="M271.27,128.38l-.33,0c.54,2.81.67,11.41-.33,12.35s-65.3-.35-70.68-1.23a1.83,1.83,0,0,0,.29.82c.88.87,69.87,2.44,71,1.33S272.06,128.69,271.27,128.38Z"/><path class="cls-22" d="M202.18,129.52A10.58,10.58,0,0,0,202,133c0,.12.23.16.28,0a6.41,6.41,0,0,0,.17-3.53.15.15,0,0,0-.28,0Z"/><path class="cls-22" d="M202,133.8a7.33,7.33,0,0,0,0,3.72c0,.09.18.14.23,0a7.44,7.44,0,0,0,.17-3.75.19.19,0,0,0-.36,0Z"/><path class="cls-22" d="M202.73,133.49a3.64,3.64,0,0,0,2.64.15c.21-.1.24-.53,0-.56a9,9,0,0,0-1.26.09c-.45,0-.9,0-1.35,0-.17,0-.17.28,0,.33Z"/><path class="cls-22" d="M205.59,129.84a9.3,9.3,0,0,0,.08,3,.18.18,0,0,0,.35,0,9.3,9.3,0,0,0,.07-3,.25.25,0,0,0-.5,0Z"/><path class="cls-22" d="M202.74,129.36a5.81,5.81,0,0,0,2.59.08.19.19,0,0,0,0-.36,5.81,5.81,0,0,0-2.59,0c-.13,0-.12.23,0,.26Z"/><path class="cls-22" d="M208.08,129.52a10.07,10.07,0,0,0-.17,3.5.15.15,0,0,0,.28,0,6.41,6.41,0,0,0,.16-3.53c0-.13-.25-.14-.27,0Z"/><path class="cls-22" d="M207.91,133.8a7.56,7.56,0,0,0,0,3.72c0,.09.18.14.23,0a7.44,7.44,0,0,0,.17-3.75c0-.18-.32-.17-.36,0Z"/><path class="cls-22" d="M208.62,133.49a3.65,3.65,0,0,0,2.64.15c.21-.1.24-.53,0-.56a9,9,0,0,0-1.26.09c-.45,0-.9,0-1.35,0-.16,0-.16.28,0,.33Z"/><path class="cls-22" d="M211.49,129.84a9.3,9.3,0,0,0,.07,3,.18.18,0,0,0,.35,0,9.3,9.3,0,0,0,.07-3,.25.25,0,0,0-.49,0Z"/><path class="cls-22" d="M208.76,134.69a13.12,13.12,0,0,0,2.9,2.77.23.23,0,0,0,.31-.32,13.07,13.07,0,0,0-2.76-2.9.32.32,0,1,0-.45.45Z"/><path class="cls-22" d="M208.63,129.36a5.81,5.81,0,0,0,2.59.08.19.19,0,0,0,0-.36,5.85,5.85,0,0,0-2.6,0c-.13,0-.12.23,0,.26Z"/><path class="cls-22" d="M214,129.52a10.07,10.07,0,0,0-.17,3.5.15.15,0,0,0,.28,0,6.32,6.32,0,0,0,.16-3.53c0-.13-.25-.14-.27,0Z"/><path class="cls-22" d="M213.8,133.8a7.56,7.56,0,0,0,0,3.72c0,.09.18.14.23,0a7.33,7.33,0,0,0,.17-3.75c0-.18-.32-.17-.36,0Z"/><path class="cls-22" d="M217.38,129.84a9.3,9.3,0,0,0,.07,3,.18.18,0,0,0,.35,0,9.59,9.59,0,0,0,.08-3,.25.25,0,0,0-.5,0Z"/><path class="cls-22" d="M217.38,134.1a11.6,11.6,0,0,0,.07,3.33.18.18,0,0,0,.35,0,12,12,0,0,0,.08-3.33.25.25,0,1,0-.5,0Z"/><path class="cls-22" d="M214.52,129.36a5.86,5.86,0,0,0,2.6.08.19.19,0,0,0,0-.36,5.85,5.85,0,0,0-2.6,0c-.13,0-.11.23,0,.26Z"/><path class="cls-22" d="M214.52,138a5.86,5.86,0,0,0,2.6.09.19.19,0,0,0,0-.36,5.85,5.85,0,0,0-2.6,0,.14.14,0,0,0,0,.26Z"/><path class="cls-22" d="M219.86,129.52a10.32,10.32,0,0,0-.17,3.5.15.15,0,0,0,.28,0,6.41,6.41,0,0,0,.17-3.53c0-.13-.26-.14-.28,0Z"/><path class="cls-22" d="M219.7,133.8a7.33,7.33,0,0,0,0,3.72c0,.09.18.14.22,0a7.33,7.33,0,0,0,.17-3.75.18.18,0,0,0-.35,0Z"/><path class="cls-22" d="M220.41,129.36a5.86,5.86,0,0,0,2.6.08.19.19,0,0,0,0-.36,5.81,5.81,0,0,0-2.59,0c-.14,0-.12.23,0,.26Z"/><path class="cls-22" d="M220.41,138a5.86,5.86,0,0,0,2.6.09.19.19,0,0,0,0-.36,5.81,5.81,0,0,0-2.59,0,.14.14,0,0,0,0,.26Z"/><path class="cls-22" d="M225.75,129.52a10.32,10.32,0,0,0-.17,3.5c0,.12.23.16.28,0a6.41,6.41,0,0,0,.17-3.53.15.15,0,0,0-.28,0Z"/><path class="cls-22" d="M225.59,133.8a7.33,7.33,0,0,0,0,3.72c0,.09.18.14.22,0a7.22,7.22,0,0,0,.17-3.75.18.18,0,0,0-.35,0Z"/><path class="cls-22" d="M226.3,133.49a3.64,3.64,0,0,0,2.64.15c.21-.1.24-.53,0-.56a8.86,8.86,0,0,0-1.25.09c-.45,0-.91,0-1.35,0-.17,0-.17.28,0,.33Z"/><path class="cls-22" d="M226.3,129.36a5.86,5.86,0,0,0,2.6.08.19.19,0,0,0,0-.36,5.81,5.81,0,0,0-2.59,0c-.13,0-.12.23,0,.26Z"/><path class="cls-22" d="M226.3,138a5.86,5.86,0,0,0,2.6.09.19.19,0,0,0,0-.36,5.81,5.81,0,0,0-2.59,0,.14.14,0,0,0,0,.26Z"/><path class="cls-22" d="M231.65,129.52a10.32,10.32,0,0,0-.18,3.5.16.16,0,0,0,.29,0,6.41,6.41,0,0,0,.16-3.53c0-.13-.25-.14-.27,0Z"/><path class="cls-22" d="M232.19,133.49a3.65,3.65,0,0,0,2.64.15c.21-.1.24-.53,0-.56a9,9,0,0,0-1.26.09c-.45,0-.9,0-1.35,0-.17,0-.17.28,0,.33Z"/><path class="cls-22" d="M235.06,134.1a11.6,11.6,0,0,0,.07,3.33.18.18,0,0,0,.35,0,11.6,11.6,0,0,0,.07-3.33.25.25,0,1,0-.49,0Z"/><path class="cls-22" d="M232.2,129.36a5.81,5.81,0,0,0,2.59.08.19.19,0,0,0,0-.36,5.81,5.81,0,0,0-2.59,0c-.13,0-.12.23,0,.26Z"/><path class="cls-22" d="M232.2,138a5.81,5.81,0,0,0,2.59.09.19.19,0,0,0,0-.36,5.81,5.81,0,0,0-2.59,0,.14.14,0,0,0,0,.26Z"/><path class="cls-22" d="M237.54,129.52a10.07,10.07,0,0,0-.17,3.5.15.15,0,0,0,.28,0,6.41,6.41,0,0,0,.16-3.53c0-.13-.25-.14-.27,0Z"/><path class="cls-22" d="M238.08,133.49a3.65,3.65,0,0,0,2.64.15c.21-.1.24-.53,0-.56a9,9,0,0,0-1.26.09c-.45,0-.9,0-1.35,0-.16,0-.16.28,0,.33Z"/><path class="cls-22" d="M241,134.1a11.6,11.6,0,0,0,.07,3.33.18.18,0,0,0,.35,0,11.6,11.6,0,0,0,.07-3.33.25.25,0,1,0-.49,0Z"/><path class="cls-22" d="M238.09,129.36a5.82,5.82,0,0,0,2.59.08.19.19,0,0,0,0-.36,5.85,5.85,0,0,0-2.6,0c-.13,0-.12.23,0,.26Z"/><path class="cls-22" d="M238.09,138a5.82,5.82,0,0,0,2.59.09.19.19,0,0,0,0-.36,5.85,5.85,0,0,0-2.6,0,.14.14,0,0,0,0,.26Z"/><path class="cls-23" d="M161.32,108.64c-.21,1.31,102.78,3.59,102.77,1.68S161.54,107.33,161.32,108.64Z"/><path class="cls-23" d="M302.82,94.38c1,.73-15,14-16.07,12.61S301.83,93.66,302.82,94.38Z"/><path class="cls-24" d="M317.8,231.09s.25,67.42,0,68.55-6.83,9.48-6.83,9.48L290,290.46l-1-20.36,3.46-19.56Z"/><path class="cls-25" d="M262.14,239.71s10.83-8.6,12.31-8.62,42.12,0,43.35,0-6.83,8.62-6.83,8.62l-16.57,12Z"/><path class="cls-26" d="M262.14,239.71c0,1.63-.25,68.38,0,69.41.47,2,47.94.74,48.83,0s.72-68.81,0-69.41S262.14,238.69,262.14,239.71Z"/><path class="cls-27" d="M270.39,245.74a7,7,0,0,1,2.06.31,2.3,2.3,0,0,1,.64.29.48.48,0,0,1,.17.37,3.5,3.5,0,0,1-.25.84,7.29,7.29,0,0,1-.45,1.06.21.21,0,0,1-.22.16,1.29,1.29,0,0,1-.4-.13,3,3,0,0,0-1.22-.27h-.09l-.08,0a2.16,2.16,0,0,0-1.57,1.16,1.92,1.92,0,0,0-.18.84,1.77,1.77,0,0,0,.45,1.28,2,2,0,0,0,1.49.48,2.71,2.71,0,0,0,1.14-.24,1,1,0,0,1,.44-.11.37.37,0,0,1,.27.09,3.43,3.43,0,0,1,.39.71,3.87,3.87,0,0,1,.3.75.53.53,0,0,1,0,.15.49.49,0,0,1-.25.43,3.75,3.75,0,0,1-1,.42,5.64,5.64,0,0,1-1.84.37h-.29a4.67,4.67,0,0,1-1.53-.29,3.84,3.84,0,0,1-1.18-.87,4.57,4.57,0,0,1-1.33-3.41,3.43,3.43,0,0,1,.06-.76,4.14,4.14,0,0,1,.7-1.57,5.35,5.35,0,0,1,1.31-1.29,4.19,4.19,0,0,1,1.61-.71A4.11,4.11,0,0,1,270.39,245.74Z"/><path class="cls-27" d="M275.88,245.69c.69,0,1.07,0,1.14,0a.48.48,0,0,1,.26.14l.15.16-.06,2c0,.79-.05,1.51-.05,2.15v.65a3,3,0,0,0,0,.34.86.86,0,0,0,.06.37.38.38,0,0,0,.26.16,4,4,0,0,0,.6,0l1.18,0h.36a4.65,4.65,0,0,1,.68,0,.3.3,0,0,1,.23.19,2.43,2.43,0,0,1,0,.57v.33a4.86,4.86,0,0,1-.06,1,.47.47,0,0,1-.21.32,2.23,2.23,0,0,1-.65.06l-1.08,0h-.33l-1.76,0h-1.33a2.32,2.32,0,0,1-.8-.08.32.32,0,0,1-.2-.3c0-.24-.06-1.13-.07-2.65v-.76c0-.2,0-.42,0-.65a21,21,0,0,1,.19-3.13,2,2,0,0,1,.16-.62.61.61,0,0,1,.39-.22A7.26,7.26,0,0,1,275.88,245.69Z"/><path class="cls-27" d="M286.26,246c.93,0,1.49,0,1.68,0a1.52,1.52,0,0,1,.42.11.26.26,0,0,1,.16.18,2,2,0,0,1,0,.44V247a6.74,6.74,0,0,1,0,.77.73.73,0,0,1-.11.36.62.62,0,0,1-.31.2,4.27,4.27,0,0,1-1.28.13l-.32,0H285.3a1.1,1.1,0,0,0-.46.06c-.06,0-.1.15-.12.32l0,.24,1.19,0a5.78,5.78,0,0,1,1.23.11.5.5,0,0,1,.35.33,2.35,2.35,0,0,1,.11.76,2.74,2.74,0,0,1,0,.35.52.52,0,0,1-.14.38l-.16.16h-2.4l-.06.24a1.21,1.21,0,0,0-.07.24c0,.1.23.16.69.16l1.08,0h1.39a3,3,0,0,1,.56,0,.29.29,0,0,1,.17.2,1.62,1.62,0,0,1,.07.61q0,.38,0,.81a4,4,0,0,1-.05.57.32.32,0,0,1-.13.22,30.89,30.89,0,0,1-3.28.1h-1.56a7.27,7.27,0,0,1-1.75-.1.46.46,0,0,1-.23-.27,4.54,4.54,0,0,1,0-.76c0-.88,0-2,.08-3.47s.11-2.45.18-3c0-.28.11-.46.24-.52a4.91,4.91,0,0,1,1.19-.1C284.35,246,285.32,246,286.26,246Z"/><path class="cls-27" d="M293.14,245.91c.41,0,.82,0,1.26,0a3.2,3.2,0,0,1,.82.12c.11,0,.22.2.34.46s.34.86.66,1.73c.42,1.08.78,2,1.07,2.6a15.24,15.24,0,0,1,1,2.83.36.36,0,0,1-.19.28,2.93,2.93,0,0,1-1.46.24h-.24a.86.86,0,0,1-.49-.19,1.36,1.36,0,0,1-.27-.58l-.13-.41-.36,0q-.58-.06-1.62-.06h-.64l-.51.05-.15.44a2,2,0,0,1-.24.51.61.61,0,0,1-.37.16,6.06,6.06,0,0,1-.89.05,3.12,3.12,0,0,1-.83-.07.29.29,0,0,1-.23-.31,7.06,7.06,0,0,1,.46-1.61c.38-1.08.73-2.12,1-3.09.61-1.88,1.08-2.91,1.41-3.08A1.45,1.45,0,0,1,293.14,245.91Zm.81,2.79a4.5,4.5,0,0,0-.37.85,4.63,4.63,0,0,0-.32,1c0,.09.28.14.84.14a2.12,2.12,0,0,0,.42,0c.1,0,.15-.07.15-.16a4.83,4.83,0,0,0-.43-1.22A5.3,5.3,0,0,0,294,248.7Z"/><path class="cls-27" d="M300.32,245.86h.36c.38,0,.66,0,.83.06a.81.81,0,0,1,.42.17,2.28,2.28,0,0,1,.4.44l2,2.67c0,.06.07.08.1.06a7.47,7.47,0,0,0,.09-1,3.26,3.26,0,0,0,0-.37c0-.7.1-1.17.14-1.42a.72.72,0,0,1,.25-.5,1.33,1.33,0,0,1,.67-.13l.78,0a3.59,3.59,0,0,1,.85.06.35.35,0,0,1,.26.3c0,.28.07,1.27.08,3,0,.33,0,.61,0,.84v.75a19.46,19.46,0,0,1-.09,2.33,1.55,1.55,0,0,1-.17.58.45.45,0,0,1-.28.21,6.09,6.09,0,0,1-.68.12,10.21,10.21,0,0,1-1.09.07,1.7,1.7,0,0,1-.41,0,.57.57,0,0,1-.21-.17,5.93,5.93,0,0,1-.68-.94c-1.06-1.58-1.62-2.38-1.67-2.39a3.41,3.41,0,0,0-.06.74,9.26,9.26,0,0,1-.23,2.43c-.1.11-.41.16-.92.16l-.2,0h-.24l-.62,0c-.31,0-.48-.07-.52-.16a2.45,2.45,0,0,1-.08-.53c0-.37-.05-1.48-.05-3.35s0-2.87,0-3.31.1-.51.26-.57A3.87,3.87,0,0,1,300.32,245.86Z"/><path class="cls-27" d="M286.65,267.11s2-9.23,2.41-9.33,1.6,10.51,1.6,10.51,4.71-5.17,5.13-5-1.77,6.27-1.77,6.27,10.27-5.18,10.25-5-7.11,6.8-6.74,7.13,11.88-.92,12.05,0-11.59,4.61-11.26,5,7.16.17,6.94.51-7.19,2.12-6.94,2.41S310,282.89,310,283.32s-11.26.43-11.26.9,4.88,4.19,4.8,4.6-5.7.07-6,.41S307,299.4,306.38,300s-11.26-7-11.52-6.79,1.85,5.85,1.27,6.4-4.8-6.71-5.3-6.4-2.31,10.07-3.18,10-1-10-1-10-7.93,8.81-8.27,8.64,4.21-10.91,4.21-10.91-5,2.29-5.3,2.27,3.36-4.83,3.36-4.83-10.45,4-10.9,3.41,8.38-7.86,8.38-7.86-8.05,2.17-8.4,1.72,6.55-6.63,6.55-6.63-3.37-.2-3.62-.54,3.53-3.09,3.53-3.09-10.68-4-10.76-4.77,11.44-.5,11.6-.57-3.57-6.08-3.34-6.74,7,5.52,7,5.52-2.19-5.92-1.68-6.08,4,4.9,4,4.9-1.94-9.95-1.52-10.37S286.65,267.11,286.65,267.11Z"/><path class="cls-28" d="M290.53,267.62a4,4,0,0,1-5.64,0c-.4.06-8.31,4.77-8.31,5.31s.61,3.87,1.14,4,3.9-1.49,4.17-1.14-1.49,15.17-1.27,15.83c.51,1.63,13.66,1.7,14.18,0,.2-.66-1.55-15.48-1.28-15.83s3.63,1.23,4.17,1.14,1.14-3.43,1.14-4S290.93,267.68,290.53,267.62Z"/><path class="cls-29" d="M300.45,256.74c-.44.09-.24,2.21-1,3.32s-2.25.87-2.31,1.55,1.71.63,2.21,1.49.6,2.67.83,2.82.68-2.75,1.34-3.22l2.58-1.79c.15-.09-2.49-.22-2.75-.6A25.74,25.74,0,0,1,300.45,256.74Z"/><path class="cls-29" d="M272.19,294c-.43.09-.24,2.21-1,3.32s-2.25.87-2.31,1.56,1.71.62,2.21,1.48.6,2.67.83,2.82.68-2.74,1.34-3.21l2.58-1.79c.15-.1-2.49-.22-2.75-.6A26,26,0,0,1,272.19,294Z"/><path class="cls-30" d="M316.89,237.31s-4.35,3.8-4.46,4.18a71,71,0,0,0-.29,7.78c.11,1.72.56,4.25.56,4.25Z"/><path class="cls-31" d="M317.32,247.24c.06.43-4.36,6.6-4.62,6.28s-.26-11.41.06-11.76,4.11-4.78,4.13-4.45S317.19,246.34,317.32,247.24Z"/><path class="cls-32" d="M312.6,252.59c-.15-2.73-.11-10.54.16-10.83s2.63-3,3.66-4.08c.09,2.38.52,8.59.39,8.92A54.33,54.33,0,0,1,312.6,252.59Z"/><path class="cls-29" d="M316.81,246.6a3.45,3.45,0,0,0,0-.59,15,15,0,0,0-4.31,0c0,2.39,0,5.18.08,6.59A54.33,54.33,0,0,0,316.81,246.6Z"/><path class="cls-33" d="M315.39,247.52a8.76,8.76,0,0,1-1.41,1.82c-1.91,1.48-1.19-1.62-1.13-2.52a3,3,0,0,0-.09-.85l-.24,0c0,2.39,0,5.18.08,6.59a54.33,54.33,0,0,0,4.21-6,3.45,3.45,0,0,0,0-.59l-.42,0A13.4,13.4,0,0,1,315.39,247.52Z"/><path class="cls-34" d="M274.2,231.68c-.93.32-4.31,2.83-3.82,3.32s43,.5,43.61,0,3.34-2.74,2.84-3.32S275,231.39,274.2,231.68Z"/><path class="cls-35" d="M311,239.71c-.71-.59-48.83-1-48.83,0,0,1.27-.15,41.8-.1,60.33.66-2.49,1.39-5,2.27-7.41a85.15,85.15,0,0,1,7.36-14.85A70.38,70.38,0,0,1,299,252.46c3.55-1.9,8-4.28,12.37-5.13A59.15,59.15,0,0,0,311,239.71Z"/><path class="cls-34" d="M317.91,270l-.62-.18a9.33,9.33,0,0,1-3.92-2.25c-.67-.65-1.23-1.52-2.2-1.71a88.23,88.23,0,0,1-7.72,16.8c-1.94,3.14-4.12,6.45-6.36,9.39a36.79,36.79,0,0,1-8.37,8,40.25,40.25,0,0,1-16,6.08,36.93,36.93,0,0,1-10.62-.19c0,1.93,0,3.09.07,3.22.47,2,47.94.74,48.83,0,0,0,6.59-8.34,6.83-9.48C317.92,299.13,317.93,285.15,317.91,270Z"/><path class="cls-36" d="M312.51,273.31c0,1,0,31,0,31.41s4.21-6,4.38-6.13.74-29.46,0-29.35S312.49,272.44,312.51,273.31Z"/><path class="cls-5" d="M206.87,246.3a2.62,2.62,0,0,0-5.22-.25,11.27,11.27,0,0,0-4.45-2.37,9.27,9.27,0,0,0-14.39-7.29,15,15,0,0,0-1.82-3.73,4.36,4.36,0,1,0-6.35-5.4,15,15,0,0,0-5.19-1.32,11.45,11.45,0,0,0-18.59-7.36,4.37,4.37,0,0,0-8.59,1.11,4.73,4.73,0,0,0,0,.53,9.09,9.09,0,0,0-3.05-.53,9.23,9.23,0,0,0-6.47,2.64c0-.31,0-.63,0-1A11.45,11.45,0,0,0,116,211.24a2.62,2.62,0,1,0-3.59,3,11.46,11.46,0,0,0-2.48,6,11.46,11.46,0,0,0-7.15,15.12,11.57,11.57,0,0,0-4.87,3,9.24,9.24,0,0,0-11.43,1.34,4.36,4.36,0,1,0-2.61,7.9,9.37,9.37,0,0,0,1.27,3.5A9.28,9.28,0,0,0,91.69,267l102.5-.85a11.45,11.45,0,0,0,9.86-17.29h.21A2.61,2.61,0,0,0,206.87,246.3ZM147.11,224h0l0,.07Z"/><circle class="cls-37" cx="121.37" cy="221.38" r="11.46"/><path class="cls-38" d="M111.13,222.7a11.45,11.45,0,0,1,19.27-8.37,11.46,11.46,0,1,0-16.84,15.43A11.45,11.45,0,0,1,111.13,222.7Z"/><path class="cls-39" d="M130.64,214.64a11.46,11.46,0,0,1-19.48,11.93,11.46,11.46,0,1,0,19.48-11.93Z"/><path class="cls-5" d="M178.65,244.13a9.29,9.29,0,1,0,9.29-9.29A9.29,9.29,0,0,0,178.65,244.13Z"/><path class="cls-38" d="M179.87,245.45a9.28,9.28,0,0,1,15.48-6.9A9.27,9.27,0,1,0,181.74,251,9.22,9.22,0,0,1,179.87,245.45Z"/><path class="cls-39" d="M195.33,238.53a9.13,9.13,0,0,1,.94,4,9.28,9.28,0,0,1-16.68,5.6,9.28,9.28,0,1,0,15.74-9.64Z"/><path class="cls-5" d="M174.29,229a4.37,4.37,0,1,0,4.36-4.37A4.36,4.36,0,0,0,174.29,229Z"/><path class="cls-38" d="M174.84,229.76a4.36,4.36,0,0,1,7.63-2.89,4.36,4.36,0,1,0-7.08,5A4.34,4.34,0,0,1,174.84,229.76Z"/><path class="cls-39" d="M181.81,226a4.44,4.44,0,0,1,.26,1.46,4.36,4.36,0,0,1-7.53,3,4.36,4.36,0,1,0,7.27-4.46Z"/><path class="cls-37" d="M155,260.16a4.37,4.37,0,1,0,4.37-4.37A4.37,4.37,0,0,0,155,260.16Z"/><path class="cls-38" d="M155.58,260.93a4.36,4.36,0,0,1,7.63-2.88,4.36,4.36,0,1,0-7.09,5A4.45,4.45,0,0,1,155.58,260.93Z"/><path class="cls-39" d="M162.55,257.15a4.43,4.43,0,0,1,.25,1.46,4.36,4.36,0,0,1-7.52,3,4.36,4.36,0,1,0,7.27-4.46Z"/><path class="cls-37" d="M142.27,219.69a4.37,4.37,0,1,0,4.37-4.36A4.37,4.37,0,0,0,142.27,219.69Z"/><path class="cls-38" d="M143.49,221a4.36,4.36,0,0,1,6.9-3.55,4.36,4.36,0,1,0-6.29,5.77A4.3,4.3,0,0,1,143.49,221Z"/><path class="cls-39" d="M149.8,216.69a4.36,4.36,0,0,1-7.27,4.46,4.36,4.36,0,1,0,7.27-4.46Z"/><path class="cls-37" d="M79.61,243.28A4.37,4.37,0,1,0,84,238.91,4.37,4.37,0,0,0,79.61,243.28Z"/><path class="cls-38" d="M80.82,244.61a4.36,4.36,0,0,1,6.91-3.55,4.36,4.36,0,1,0-6.3,5.77A4.4,4.4,0,0,1,80.82,244.61Z"/><path class="cls-39" d="M87.13,240.28a4.1,4.1,0,0,1,.26,1.45,4.36,4.36,0,0,1-7.53,3,4.36,4.36,0,0,0,8.48-1.45A4.3,4.3,0,0,0,87.13,240.28Z"/><path class="cls-5" d="M110.86,211.79a2.62,2.62,0,1,0,2.62-2.61A2.62,2.62,0,0,0,110.86,211.79Z"/><path class="cls-38" d="M112.08,212.48a2.61,2.61,0,0,1,2.61-2.62,2.67,2.67,0,0,1,.64.08,2.62,2.62,0,1,0-2.49,4.39A2.62,2.62,0,0,1,112.08,212.48Z"/><path class="cls-39" d="M115.1,209.74a2.73,2.73,0,0,1,.05.5,2.62,2.62,0,0,1-4.24,2.06,2.62,2.62,0,1,0,4.19-2.56Z"/><path class="cls-5" d="M201.64,246.3a2.62,2.62,0,1,0,2.62-2.62A2.61,2.61,0,0,0,201.64,246.3Z"/><path class="cls-38" d="M202.86,247.62a2.61,2.61,0,0,1,2.61-2.61,2.57,2.57,0,0,1,1.21.29,2.62,2.62,0,1,0-3.63,3.32A2.74,2.74,0,0,1,202.86,247.62Z"/><path class="cls-39" d="M205.87,244.24a2.15,2.15,0,0,1,0,.51,2.61,2.61,0,0,1-4.23,2.05,2.61,2.61,0,1,0,4.18-2.56Z"/><path class="cls-5" d="M147.34,208.22A2.62,2.62,0,1,0,150,205.6,2.61,2.61,0,0,0,147.34,208.22Z"/><path class="cls-38" d="M148.56,209.54a2.61,2.61,0,0,1,2.61-2.61,2.57,2.57,0,0,1,1.21.29,2.62,2.62,0,1,0-3.63,3.32A2.74,2.74,0,0,1,148.56,209.54Z"/><path class="cls-39" d="M151.58,206.16a2.84,2.84,0,0,1,0,.51,2.62,2.62,0,0,1-4.24,2.05,2.62,2.62,0,1,0,4.19-2.56Z"/><circle class="cls-5" cx="139.26" cy="228.98" r="9.28"/><path class="cls-38" d="M131.19,230.3a9.27,9.27,0,0,1,15.48-6.89,9.27,9.27,0,1,0-13.61,12.46A9.2,9.2,0,0,1,131.19,230.3Z"/><path class="cls-40" d="M146.66,223.38A9.28,9.28,0,0,1,130.91,233a9.28,9.28,0,1,0,15.75-9.64Z"/><circle class="cls-5" cx="144.46" cy="261.35" r="9.28" transform="translate(-152.28 294.8) rotate(-67.5)"/><path class="cls-38" d="M136.39,262.68a9.27,9.27,0,0,1,15.48-6.9,9.27,9.27,0,1,0-13.61,12.47A9.24,9.24,0,0,1,136.39,262.68Z"/><path class="cls-39" d="M151.85,255.76a9.13,9.13,0,0,1,.94,4,9.28,9.28,0,0,1-16.68,5.59,9.27,9.27,0,1,0,15.74-9.63Z"/><path class="cls-5" d="M83.81,246.3A9.28,9.28,0,1,0,93.09,237,9.27,9.27,0,0,0,83.81,246.3Z"/><path class="cls-38" d="M85,247.62a9.28,9.28,0,0,1,15.49-6.89,9.27,9.27,0,1,0-13.62,12.46A9.2,9.2,0,0,1,85,247.62Z"/><path class="cls-39" d="M100.49,240.7a9.28,9.28,0,0,1-15.75,9.64,9.28,9.28,0,1,0,15.75-9.64Z"/><circle class="cls-5" cx="91.69" cy="257.75" r="9.28" transform="translate(-80.2 44.92) rotate(-19.34)"/><path class="cls-38" d="M83.62,259.08a9.28,9.28,0,0,1,15.48-6.9,9.27,9.27,0,1,0-13.61,12.47A9.22,9.22,0,0,1,83.62,259.08Z"/><path class="cls-39" d="M99.09,252.16a9.28,9.28,0,0,1-15.75,9.64,9.28,9.28,0,1,0,15.75-9.64Z"/><path class="cls-37" d="M182.74,254.74a11.46,11.46,0,1,0,11.45-11.46A11.45,11.45,0,0,0,182.74,254.74Z"/><path class="cls-38" d="M184,256.06a11.45,11.45,0,0,1,19.27-8.37,11.45,11.45,0,1,0-16.84,15.42A11.4,11.4,0,0,1,184,256.06Z"/><path class="cls-39" d="M203.46,248A11.45,11.45,0,0,1,184,259.92,11.46,11.46,0,1,0,203.46,248Z"/><path class="cls-5" d="M146.64,227.46A11.46,11.46,0,1,0,158.1,216,11.45,11.45,0,0,0,146.64,227.46Z"/><path class="cls-38" d="M147.85,228.78a11.45,11.45,0,0,1,19.27-8.37,11.46,11.46,0,1,0-16.84,15.43A11.45,11.45,0,0,1,147.85,228.78Z"/><path class="cls-39" d="M167.36,220.72a11.46,11.46,0,0,1-19.48,11.93,11.46,11.46,0,1,0,19.48-11.93Z"/><path class="cls-5" d="M102,231.15a11.46,11.46,0,1,0,11.46-11.46A11.46,11.46,0,0,0,102,231.15Z"/><path class="cls-38" d="M103.24,232.48a11.45,11.45,0,0,1,19.27-8.38,11.46,11.46,0,1,0-16.84,15.43A11.42,11.42,0,0,1,103.24,232.48Z"/><path class="cls-39" d="M122.74,224.41A11.32,11.32,0,0,1,124,229.6a11.45,11.45,0,0,1-20.71,6.74,11.45,11.45,0,1,0,19.47-11.93Z"/><circle class="cls-37" cx="168.33" cy="241.14" r="15.24" transform="translate(-42.56 36.18) rotate(-10.9)"/><path class="cls-38" d="M154.3,242.46a15.23,15.23,0,0,1,25.86-10.92,15.24,15.24,0,1,0-22.45,20.53A15.19,15.19,0,0,1,154.3,242.46Z"/><path class="cls-40" d="M180.84,232.43a15.24,15.24,0,0,1-26,15.86,15.24,15.24,0,1,0,26-15.86Z"/><circle class="cls-5" cx="125.98" cy="241.14" r="15.24" transform="translate(-145.01 265.25) rotate(-67.5)"/><path class="cls-38" d="M112,242.46a15.23,15.23,0,0,1,25.86-10.92,15.24,15.24,0,1,0-22.45,20.53A15.19,15.19,0,0,1,112,242.46Z"/><path class="cls-39" d="M138.49,232.43a15.24,15.24,0,0,1-26,15.86,15.24,15.24,0,1,0,26-15.86Z"/><path class="cls-37" d="M94.79,246.3a11.46,11.46,0,1,0,11.46-11.46A11.45,11.45,0,0,0,94.79,246.3Z"/><path class="cls-38" d="M96,247.62a11.45,11.45,0,0,1,19.26-8.37,11.45,11.45,0,1,0-16.83,15.42A11.34,11.34,0,0,1,96,247.62Z"/><path class="cls-40" d="M115.51,239.56A11.46,11.46,0,0,1,96,251.49a11.46,11.46,0,1,0,19.48-11.93Z"/><path class="cls-5" d="M126,245.1a2.62,2.62,0,1,0,2.62-2.61A2.62,2.62,0,0,0,126,245.1Z"/><path class="cls-38" d="M127.19,245.79a2.62,2.62,0,0,1,2.62-2.62,2.74,2.74,0,0,1,.64.08,2.62,2.62,0,1,0-2.49,4.39A2.62,2.62,0,0,1,127.19,245.79Z"/><path class="cls-40" d="M130.21,243.05a2.73,2.73,0,0,1,0,.5,2.62,2.62,0,0,1-2.62,2.62,2.58,2.58,0,0,1-1.61-.56,2.61,2.61,0,1,0,4.18-2.56Z"/><circle class="cls-5" cx="115.27" cy="259.08" r="9.28" transform="translate(-168.2 266.43) rotate(-67.5)"/><path class="cls-38" d="M107.2,260.41a9.28,9.28,0,0,1,15.49-6.9A9.28,9.28,0,1,0,109.07,266,9.24,9.24,0,0,1,107.2,260.41Z"/><path class="cls-39" d="M122.67,253.49a9.27,9.27,0,0,1-15.74,9.63,9.27,9.27,0,1,0,15.74-9.63Z"/><path class="cls-5" d="M141.11,247.64a9.29,9.29,0,1,0,9.28-9.28A9.27,9.27,0,0,0,141.11,247.64Z"/><path class="cls-38" d="M142.32,249a9.28,9.28,0,0,1,15.49-6.9,9.28,9.28,0,1,0-13.62,12.47A9.24,9.24,0,0,1,142.32,249Z"/><path class="cls-40" d="M157.79,242.05A9.27,9.27,0,0,1,142,251.68a9.28,9.28,0,1,0,15.75-9.63Z"/><circle class="cls-5" cx="175.89" cy="254.54" r="11.46"/><path class="cls-38" d="M165.65,255.86a11.46,11.46,0,0,1,19.26-8.38,11.45,11.45,0,1,0-16.83,15.43A11.4,11.4,0,0,1,165.65,255.86Z"/><path class="cls-39" d="M185.15,247.94a11.45,11.45,0,0,1-19.48,11.92,11.46,11.46,0,1,0,19.48-11.92Z"/><path class="cls-37" d="M126.85,257.89a4.37,4.37,0,1,0,4.36-4.37A4.36,4.36,0,0,0,126.85,257.89Z"/><path class="cls-38" d="M127.4,258.66a4.36,4.36,0,0,1,7.63-2.89,4.36,4.36,0,0,0-8.18,2.12,4.3,4.3,0,0,0,1.1,2.89A4.34,4.34,0,0,1,127.4,258.66Z"/><path class="cls-39" d="M134.37,254.88a4.34,4.34,0,0,1-4.11,5.82,4.35,4.35,0,0,1-3.16-1.36,4.36,4.36,0,1,0,7.27-4.46Z"/><g class="cls-41"><path class="cls-29" d="M120.34,214.91a14.39,14.39,0,0,1,3.47.12,6,6,0,0,0,2.82.22.54.54,0,0,0,.32-.79c-1.2-2.11-4.92-1.6-6.8-.93-.7.25-.65,1.45.19,1.38Z"/></g><g class="cls-41"><path class="cls-29" d="M128.19,216.74a7.43,7.43,0,0,1,1,1.27.61.61,0,0,0,.67.27.57.57,0,0,0,.26-.15.62.62,0,0,0,.09-.72,3.48,3.48,0,0,0-1.39-1.43.49.49,0,0,0-.59.76Z"/></g><path class="cls-29" d="M106.62,232a14.54,14.54,0,0,1,.34-2.47,9.54,9.54,0,0,1,1.16-2.27c.31-.45-.22-1.21-.76-1a3.75,3.75,0,0,0-2.37,2.57,3.89,3.89,0,0,0,.42,3.48.73.73,0,0,0,1.21-.32Z"/><g class="cls-41"><path class="cls-29" d="M109.87,226c.45-.34,1.13-.69,1.22-1.3a.39.39,0,0,0-.37-.49c-.63,0-1.11.52-1.54.89a.58.58,0,0,0-.05.76.56.56,0,0,0,.74.14Z"/></g><g class="cls-41"><path class="cls-29" d="M122.71,232.15a11,11,0,0,1,7.06-.28c2,.68,3.31,2.27,5,3.43.64.44,1.32-.29,1.2-.92-1.16-6.06-9.92-6.66-13.86-3.32a.66.66,0,0,0,.64,1.09Z"/></g><g class="cls-41"><path class="cls-29" d="M136.58,238a1.28,1.28,0,0,1,.45.55c.09.21.15.41.38.52A.49.49,0,0,0,138,239c.31-.32.08-.83-.12-1.14a2.38,2.38,0,0,0-.73-.75.53.53,0,0,0-.73.19.55.55,0,0,0,.19.74Z"/></g><g class="cls-41"><path class="cls-29" d="M105.37,240.81a5.36,5.36,0,0,1,4.21.15,12.44,12.44,0,0,1,2.72,2.3c.32.29,1,.12.94-.38-.4-3.88-5.38-4.68-8.26-3-.48.28-.16,1.12.39.92Z"/></g><g class="cls-41"><path class="cls-29" d="M112.76,245.45v.92c0,.37,0,.64.31.88a.47.47,0,0,0,.46,0c.32-.24.31-.51.31-.88v-.92a.54.54,0,0,0-1.08,0Z"/></g><path class="cls-29" d="M92.59,252a4,4,0,0,0-4.29,1.13c-1,1.06-2.28,3.13-2.1,4.67a.78.78,0,0,0,1.31.54c.83-.85,1-2.23,1.69-3.23a4.06,4.06,0,0,1,3.24-2c.67,0,.76-1,.15-1.14Z"/><g class="cls-41"><path class="cls-29" d="M86.91,259.94c-.08.42,0,1,.44,1.15a.28.28,0,0,0,.34-.2c.08-.24,0-.48,0-.73.15-.53-.71-.76-.82-.22Z"/></g><path class="cls-5" d="M193.44,223.24a3.78,3.78,0,1,0,3.78-3.78A3.78,3.78,0,0,0,193.44,223.24Z"/><path class="cls-38" d="M193.94,223.78a3.77,3.77,0,0,1,6.3-2.81,3.78,3.78,0,1,0-5.54,5.08A3.76,3.76,0,0,1,193.94,223.78Z"/><path class="cls-39" d="M200.23,221a3.78,3.78,0,0,1-3.4,5.43,3.77,3.77,0,0,1-3-1.5,3.78,3.78,0,1,0,6.41-3.93Z"/><g class="cls-41"><path class="cls-29" d="M197.59,220.89a1.63,1.63,0,0,0-1.75.46,2.78,2.78,0,0,0-.85,1.9.32.32,0,0,0,.53.22c.34-.35.42-.91.69-1.32a1.65,1.65,0,0,1,1.31-.8.24.24,0,0,0,.07-.46Z"/></g><g class="cls-41"><path class="cls-29" d="M195.28,224.13c0,.17,0,.41.18.47a.11.11,0,0,0,.13-.08c0-.1,0-.2,0-.3s-.29-.31-.33-.09Z"/></g><path class="cls-29" d="M88.65,245.87a3.93,3.93,0,0,1,1.17-2.18,3.89,3.89,0,0,1,1-.69,3.34,3.34,0,0,0,1-.59.6.6,0,0,0-.27-1c-1-.34-2.22.65-2.82,1.34a5.22,5.22,0,0,0-1.28,2.94c-.08.68,1.06.84,1.19.17Z"/><g class="cls-41"><path class="cls-29" d="M93.2,241.48h.13c.5,0,.5-.82,0-.78H93.2a.38.38,0,0,0,0,.76Z"/></g><path class="cls-29" d="M139.67,223.91a6.76,6.76,0,0,1,2.83,1.15c.81.57,1.26,1.48,2.05,2.06.38.29.86-.11.88-.51.08-1.29-1.11-2.34-2.1-3a4.86,4.86,0,0,0-3.66-.66.49.49,0,0,0,0,.93Z"/><g class="cls-41"><path class="cls-29" d="M144.09,229.18a2.86,2.86,0,0,0-.08,1,1.65,1.65,0,0,0,.3,1,.51.51,0,0,0,.69,0,1.31,1.31,0,0,0,.36-1.12,1.61,1.61,0,0,0-.43-1.13.51.51,0,0,0-.84.23Z"/></g><g class="cls-42"><path class="cls-29" d="M151,230.48a7,7,0,0,1-.19-3.88,12,12,0,0,1,1.72-3c.28-.47-.27-.94-.72-.81-3.3.94-2.4,5.65-1.48,7.93a.35.35,0,0,0,.67-.23Z"/></g><g class="cls-42"><path class="cls-29" d="M154.11,222.26a5.44,5.44,0,0,0,1.54-2,.67.67,0,0,0-.81-.82,5.39,5.39,0,0,0-2,1.54.9.9,0,0,0,1.27,1.28Z"/></g><g class="cls-41"><path class="cls-29" d="M146.33,218.43l.64,0a.42.42,0,0,0,0-.83l-.64,0a.38.38,0,0,0,0,.76Z"/></g><path class="cls-29" d="M160.56,236.3a12.44,12.44,0,0,1,9.33-4.16c2.14,0,2.13-3.25,0-3.32a10.71,10.71,0,0,0-10.54,6.77c-.28.68.75,1.22,1.21.71Z"/><g class="cls-41"><path class="cls-29" d="M173.47,231.52c.5,0,.81.46,1.3.47,0,0,.38,0,.25,0a.76.76,0,0,0,.3,0,.53.53,0,0,0,.39-.46,1,1,0,0,0,0-.35c0-.06,0,0,0,0a.87.87,0,0,0-.11-.41,1.14,1.14,0,0,0-.75-.55,2.59,2.59,0,0,0-1.51,0,.66.66,0,0,0,.17,1.3Z"/></g><path class="cls-37" d="M82.05,230.82a3,3,0,1,0,3-3A3,3,0,0,0,82.05,230.82Z"/><path class="cls-38" d="M82.29,231.08a3,3,0,0,1,3-3,3,3,0,0,1,2.1.85A3,3,0,1,0,83,233,3,3,0,0,1,82.29,231.08Z"/><path class="cls-39" d="M87.52,229.11a3,3,0,0,1,.35,1.41,3,3,0,0,1-5.47,1.71,3,3,0,0,0,5.66-1.41A3,3,0,0,0,87.52,229.11Z"/><g class="cls-41"><path class="cls-29" d="M83.52,229.87a2.47,2.47,0,0,1,1.84-.82.33.33,0,0,0,0-.65,2.08,2.08,0,0,0-2.07,1.33c-.06.13.14.24.23.14Z"/></g><g class="cls-41"><path class="cls-29" d="M86.07,228.93c.1,0,.16.09.25.09h.11a.12.12,0,0,0,.08-.09.15.15,0,0,0,0-.07.19.19,0,0,0,0-.08.24.24,0,0,0-.15-.11.51.51,0,0,0-.3,0,.13.13,0,0,0,0,.26Z"/></g><path class="cls-29" d="M147.8,243.08c-1.9.61-2.66,2.61-2.73,4.44a.52.52,0,0,0,1,.26,19.72,19.72,0,0,1,2.35-3.69.61.61,0,0,0-.59-1Z"/><g class="cls-41"><path class="cls-29" d="M144.94,250.49c.08.41.16,1,.58,1.2a.51.51,0,0,0,.68-.18c.29-.37.08-1,0-1.36a.66.66,0,0,0-.79-.45.64.64,0,0,0-.45.79Z"/></g><g class="cls-41"><path class="cls-29" d="M141.11,258.12c-1-.39-2,1-2.39,1.67-.55.88-1.2,2.28-.64,3.27a.66.66,0,0,0,1,.13c.59-.7.6-1.75,1-2.57.35-.65,1.3-1.41,1.21-2.19a.34.34,0,0,0-.24-.31Z"/></g><g class="cls-41"><path class="cls-29" d="M140,265.5a2,2,0,0,0,.61,1.54,2.52,2.52,0,0,0,.58.5,1.28,1.28,0,0,0,.39.19,3.42,3.42,0,0,0,.45,0c.54.07.76-.69.42-1,.06.2.11.39.16.59a.59.59,0,0,0-.16-.59,4.89,4.89,0,0,0-.39-.4l-.41-.35a7,7,0,0,0-.77-.85.61.61,0,0,0-.88.36Z"/></g><path class="cls-29" d="M130.52,256.75a5.71,5.71,0,0,1,1.43-.09,2.14,2.14,0,0,0,1.28-.14.47.47,0,0,0,.17-.63c-.68-1.09-2.4-.44-3.18.15a.39.39,0,0,0,.3.71Z"/><path class="cls-37" d="M171.49,206.16a5.73,5.73,0,1,0,5.73-5.73A5.72,5.72,0,0,0,171.49,206.16Z"/><path class="cls-38" d="M172.22,207.18a5.72,5.72,0,0,1,10-3.79,5.73,5.73,0,1,0-9.3,6.57A5.8,5.8,0,0,1,172.22,207.18Z"/><path class="cls-39" d="M181.37,202.22a5.72,5.72,0,0,1-9.55,5.85,5.73,5.73,0,1,0,9.55-5.85Z"/><g class="cls-41"><path class="cls-29" d="M176.31,204.67a6.57,6.57,0,0,1,1.88-.11,2.83,2.83,0,0,0,1.68-.19.6.6,0,0,0,.22-.82c-.89-1.44-3.14-.58-4.18.19a.51.51,0,0,0,.4.93Z"/></g><g class="cls-41"><path class="cls-29" d="M111.13,259c.36-1.45,2-2.32,3.35-2.66s2.42.07,3.62-.31a.74.74,0,0,0,.44-1.08c-2.35-3.12-9.1.23-8.2,4.05a.41.41,0,0,0,.79,0Z"/></g><path class="cls-29" d="M120,256a2.3,2.3,0,0,0,.67.92,2.94,2.94,0,0,0,.42.36,1.38,1.38,0,0,0,.67.12.56.56,0,0,0,.52-.7,1,1,0,0,0-.19-.56,2.85,2.85,0,0,0-.49-.43,2.12,2.12,0,0,0-1-.49.62.62,0,0,0-.59.78Z"/><g class="cls-41"><path class="cls-29" d="M177.94,228.28a3,3,0,0,1,.92-.41c.34-.11.66-.29,1-.43a.48.48,0,0,0,.09-.75,1.69,1.69,0,0,0-1.59-.42,2.59,2.59,0,0,0-1.4,1c-.42.57.41,1.38,1,1Z"/></g><path class="cls-5" d="M89.82,218.47a4.37,4.37,0,1,0,4.36-4.37A4.36,4.36,0,0,0,89.82,218.47Z"/><path class="cls-38" d="M90.37,219.25A4.36,4.36,0,0,1,98,216.36a4.36,4.36,0,1,0-7.09,5A4.44,4.44,0,0,1,90.37,219.25Z"/><path class="cls-39" d="M97.34,215.46a4.44,4.44,0,0,1,.26,1.46,4.37,4.37,0,0,1-4.37,4.36,4.32,4.32,0,0,1-3.16-1.36,4.36,4.36,0,1,0,7.27-4.46Z"/><g class="cls-41"><path class="cls-29" d="M93.47,217.77a3,3,0,0,1,.92-.41c.34-.11.66-.29,1-.43a.48.48,0,0,0,.1-.75,1.71,1.71,0,0,0-1.6-.42,2.61,2.61,0,0,0-1.39,1c-.43.58.41,1.38,1,1Z"/></g><path class="cls-29" d="M181.47,247.93c-2.85-3.46-11.47-.74-12,3.63a.85.85,0,0,0,.84.84c1.61-.17,2.73-1.09,4.15-1.79,1-.49,4.19-1.78,5.24-.94a1.23,1.23,0,0,0,1.73-1.74Z"/><path class="cls-29" d="M169.25,253.52a1.86,1.86,0,0,0-.75,1,.82.82,0,0,0,1.37.8,1.82,1.82,0,0,0,.48-1.16.74.74,0,0,0-1.1-.63Z"/><g class="cls-41"><path class="cls-29" d="M182,251.21l.2,0c-.12,0,.11.05.11.05a.73.73,0,0,0,.69,0l-.31.08c-.07,0,0,0,.06,0a.65.65,0,0,0,.2,0,.44.44,0,0,0,.4-.3.61.61,0,0,0,0-.4c-.07-.14,0,.18,0-.06a.66.66,0,0,0-.19-.39,1.22,1.22,0,0,0-.93-.31.66.66,0,0,0-.18,1.3Z"/></g><path class="cls-29" d="M191.63,248.18a8.39,8.39,0,0,1,2.77-.37,21.7,21.7,0,0,0,2.61.34.75.75,0,0,0,.53-1.26c-1.58-1.63-4.71-.74-6.28.42-.4.3-.18,1,.37.87Z"/><g class="cls-41"><path class="cls-29" d="M186.28,240.3a9.54,9.54,0,0,1,2.07-.26,3.82,3.82,0,0,0,1.87-.19.7.7,0,0,0,.14-1.09c-1.19-1-3.34-.12-4.47.62a.51.51,0,0,0,.39.92Z"/></g><g class="cls-43"><path class="cls-29" d="M82.46,258.74c0,.09,0,.17,0,.26,0,.24.06.47.11.7s0,.18.07.26c.06.23.11.46.19.68a1.8,1.8,0,0,0,.08.21,7.07,7.07,0,0,0,.27.69c0,.06,0,.11.07.16l0,.1.32.61.06.1c.15.24.31.48.47.71l0,0c.17.22.34.43.52.63l0,.06a9.12,9.12,0,0,0,1.26,1.16l.21.17.38.26.35.21.49.27.45.21.3.13.51.19.24.08c.25.07.51.14.76.19l.22,0,.63.1.24,0c.28,0,.56,0,.85,0a9.25,9.25,0,0,0,6.56-2.72A10,10,0,0,0,99.39,263a9.62,9.62,0,0,0,.85-1.58,11,11,0,0,0,.38-1.1,6.15,6.15,0,0,1-.11-1.69s-4.23,5.11-10.69,4.37c-6.21-.71-7.31-5.36-7.39-5.74,0,.18,0,.36,0,.54A8,8,0,0,0,82.46,258.74Z"/><path class="cls-29" d="M204.27,260.2a10.16,10.16,0,0,0,.48-1,11.15,11.15,0,0,0,.54-1.6c.09-.37.17-.74.23-1.12a11.14,11.14,0,0,0,.13-1.74c0-.29,0-.56,0-.84,0-.06,0-.12,0-.17,0-.28,0-.54-.09-.81a.43.43,0,0,1,0-.11c-.05-.25-.1-.5-.16-.75a.29.29,0,0,0,0-.09c-.06-.26-.13-.5-.21-.75-4.17,10.2-13.11,9.69-19.15,9,2.35-2.55,1.05-7.76,1.05-7.76s1.13,6.35-8.62,8.95c-9.54,2.54-13.62-4.71-13.8-5l0,.19c0,.12,0,.24.07.37a1.94,1.94,0,0,0,0,.2c0,.12.05.24.08.37l.06.19c0,.12.07.24.11.37l.06.18c0,.12.08.24.13.37a1.11,1.11,0,0,0,.07.16l.15.38s0,.09.07.14a2.64,2.64,0,0,0,.18.38l.06.13.21.38-.24-.3A11.46,11.46,0,0,0,185,261.6l.17.21,0,.06.33.4.4.43.31.31.11.1a10.21,10.21,0,0,0,1.08.89l.06,0c.18.14.37.26.57.39l.06,0,.64.37.64.32.13.06a12.23,12.23,0,0,0,1.36.5l.16,0c.19.06.38.1.58.15l.14,0,.71.13.15,0c.19,0,.39.05.59.06l.2,0,.74,0a11.43,11.43,0,0,0,7.29-2.61A11.68,11.68,0,0,0,204.27,260.2Z"/><path class="cls-29" d="M106,259.78c0,.09,0,.19,0,.29s0,.17,0,.26.07.47.12.7l.06.26c.06.23.12.45.19.68l.08.21q.12.35.27.69l.08.16a6.7,6.7,0,0,0,.37.7l.06.1a6.71,6.71,0,0,0,.47.71l0,.06a7.79,7.79,0,0,0,.51.63l0,0a9.16,9.16,0,0,0,1.26,1.17l.22.16.38.26.34.21a4.82,4.82,0,0,0,.5.27l.44.22.31.13c.16.06.33.13.51.18l.24.08c.25.08.5.14.76.2l.21,0,.63.1.25,0a7.87,7.87,0,0,0,.84,0,9.32,9.32,0,0,0,9.29-9.24s-3.23,4.52-8.46,5S107.6,263.05,106,259.78Z"/><path class="cls-29" d="M138.82,268.72l.22.16.38.26c.11.08.23.14.34.21a4.82,4.82,0,0,0,.5.27l.45.22.3.13c.17.06.34.13.51.18l.24.08a6.53,6.53,0,0,0,.76.2l.22,0,.63.1.24,0a7.89,7.89,0,0,0,.84.05,9.29,9.29,0,0,0,5.2-1.59l.71-.53a9.16,9.16,0,0,0,.95-.92,9.46,9.46,0,0,0,1.31-1.82,9.31,9.31,0,0,0,1.11-4.17c-.1.65-1,2.51-7.76,2.64-7,.13-9.88-3.18-10.61-4.2a7.61,7.61,0,0,0-.19,1.3c0,.33,0,.66.05,1,0,.09,0,.17,0,.26s.07.47.12.7a2.5,2.5,0,0,0,.07.26c.05.23.11.45.18.68a1.8,1.8,0,0,1,.08.21c.09.23.17.47.27.69l.08.16c.11.24.24.47.37.7l.06.1a7.28,7.28,0,0,0,.47.71l0,.06a7.79,7.79,0,0,0,.51.63l.05.06A10.43,10.43,0,0,0,138.82,268.72Z"/></g><path class="cls-44" d="M205.65,254.74a11.56,11.56,0,0,0-.55-3.51c-4.17,10.19-13.11,9.68-19.15,9,2.35-2.55,1.05-7.76,1.05-7.76s1.13,6.35-8.62,8.95-13.81-5.05-13.81-5.05a9.27,9.27,0,0,1-4.49,4.54,7.62,7.62,0,0,1-6.34.51s.45,2.7-7.77,2.86-10.8-4.49-10.8-4.49-9.23,4.52-11.57,3.47a9.09,9.09,0,0,0,1-4.11s-3.21,4.52-8.46,5-8.52-1.11-10.09-4.4c-.23,2,1.48,4.4,1.48,4.4s-1.07-.15-4.22-.92-2.76-4.65-2.76-4.65-4.23,5.11-10.69,4.37c-6.2-.71-7.31-5.35-7.39-5.74,0,.18,0,.36,0,.54A9.29,9.29,0,0,0,91.69,267l102.5-.85A11.46,11.46,0,0,0,205.65,254.74Z"/><path class="cls-45" d="M88,268.94c-1.35,1.63,9.7,38.06,11.22,40.24s86.37,1.74,87.88,0,11-38.29,9.38-40.24S89.36,267.31,88,268.94Z"/><path class="cls-46" d="M196.5,268.94c-1.59-1.95-107.14-1.63-108.48,0-.67.81,1.7,10.15,4.45,19.64,10.37-4.55,26.42-11.65,48.94-12,21.35-.31,38.85,3.72,52.11,10.27C195.62,278.08,197.23,269.84,196.5,268.94Z"/><path class="cls-47" d="M86.49,265.19c-1.94,0-1.15,8.84,1.08,9s107.76.15,109.74,0,2.21-9,0-9Z"/><path class="cls-48" d="M197.31,274.39c1.73-.13,2.12-6.95.71-8.65-.14,2.61-.69,5.43-2.31,5.94-3.13,1-104.64,1.19-107,0-1.82-.92-2.68-4.17-3-5.62-.86,2.1,0,8.17,1.84,8.33C89.81,274.58,195.33,274.54,197.31,274.39Z"/><path class="cls-49" d="M89,267.92c-1.7,2.35,53,2.24,53.57.53S90,266.56,89,267.92Z"/><path class="cls-49" d="M144.46,268.34c.12,1.46,13.31,1.36,13.18,0S144.33,266.88,144.46,268.34Z"/><path class="cls-46" d="M189.93,300.75s-2.67,5.79-4,6.56-33.93,1.54-43.4,1.92-39.82-.89-41.87-1.66-4.52-6.82-4.52-6.82a63.74,63.74,0,0,0,3,8.43c1.51,2.17,86.37,1.74,87.88,0,.43-.5,1.52-3.85,2.81-8.43Z"/><path class="cls-45" d="M196,275.54s10.66,1.1,11.17,2.22a8.27,8.27,0,0,1,.29,2.11,56.66,56.66,0,0,1-2.45,6.52c-.94.39-12.41-.29-12.41-.29L191.42,285a2.26,2.26,0,0,1,1.05-3.81s9.73.86,10.39.45,1.07-2,.67-2.24-8.1-1.1-8.1-1.1Z"/><path class="cls-50" d="M207.14,277.76c-.51-1.12-11.17-2.22-11.17-2.22l-.14.7c1.36.15,9.6,1,10.29,1.52s-2.1,6.65-1.84,6.85S207.19,277.88,207.14,277.76Z"/><path class="cls-50" d="M200.1,282.39c.63-.1,3.14-.36,2.76-.76-.66.41-10.39-.45-10.39-.45a2.23,2.23,0,0,0-1.58,1.39A51.38,51.38,0,0,0,200.1,282.39Z"/><path class="cls-46" d="M195.58,277.55l-.15.74s7.7.89,8.1,1.1.14,1.15-.26,1.79c.53-.6,1.37-1.64,1.19-2.05C204.19,278.55,195.58,277.55,195.58,277.55Z"/><path class="cls-46" d="M207.42,279.66c0-.08,0-.16,0-.24s0-.42-.06-.63a4.88,4.88,0,0,1-.36,1.46c-.37.72-1.87,4.82-2.23,5.12s-9.19-.32-13.53-.6c.06.07.12.15.19.22l1.15,1.11s3.63.22,7,.34l1.1,0,.53,0,1,0h.47a10.36,10.36,0,0,0,2.33-.12,8,8,0,0,0,.67-1.49c0-.09.07-.18.1-.26.21-.54.43-1.14.65-1.73,0-.1.07-.2.11-.29.1-.3.21-.59.3-.86s.13-.35.18-.52.11-.32.16-.46,0-.14.07-.2l.15-.48c0-.12,0-.2.06-.23S207.42,279.74,207.42,279.66Z"/><path class="cls-45" d="M89,275.54s-10.68,1.1-11.19,2.22a8.27,8.27,0,0,0-.29,2.11,56.66,56.66,0,0,0,2.45,6.52c.94.39,12.41-.29,12.41-.29L93.5,285a2.26,2.26,0,0,0-1-3.81s-9.73.86-10.39.45-1.07-2-.67-2.24,8.28-1.11,8.28-1.11Z"/><path class="cls-50" d="M77.78,277.76c.51-1.12,11.19-2.22,11.19-2.22l.18.7c-1.35.14-9.66,1-10.35,1.52s2.1,6.65,1.84,6.85S77.72,277.88,77.78,277.76Z"/><path class="cls-50" d="M84.82,282.39c-.63-.1-3.14-.36-2.76-.76.66.41,10.39-.45,10.39-.45A2.23,2.23,0,0,1,94,282.57,51.38,51.38,0,0,1,84.82,282.39Z"/><path class="cls-46" d="M89.48,277.55l.19.73s-7.88.9-8.28,1.11-.14,1.15.26,1.79c-.53-.6-1.37-1.64-1.19-2.05C80.73,278.55,89.48,277.55,89.48,277.55Z"/><path class="cls-46" d="M77.5,279.66a1.93,1.93,0,0,1,0-.24q0-.32.06-.63a4.88,4.88,0,0,0,.36,1.46c.37.72,1.87,4.82,2.23,5.12s9.19-.32,13.53-.6c-.06.07-.12.15-.19.22l-1.15,1.11s-3.63.22-7,.34l-1.1,0-.53,0-1,0h-.47a10.31,10.31,0,0,1-2.33-.12,7.29,7.29,0,0,1-.67-1.49c0-.09-.07-.18-.1-.26-.21-.54-.44-1.14-.65-1.73,0-.1-.07-.2-.11-.29-.1-.3-.21-.59-.3-.86s-.13-.35-.18-.52-.11-.32-.16-.46,0-.14-.07-.2l-.15-.48a1.07,1.07,0,0,1-.06-.23A1.62,1.62,0,0,1,77.5,279.66Z"/><path class="cls-51" d="M143.06,279.36c-27,.73-38.12,3.63-37.74,8.62s31-4.52,38.28-4.31,35.92,11.88,37.9,5.45S164.6,278.79,143.06,279.36Z"/></g></g></svg>